WixMadeforText-BoldItalic.ufo
<glyph name="ampersand" format="2">
	<unicode hex="0026"/>
	<advance width="672"/>
	<outline>
		<contour>
			<point x="439" y="196" type="line"/>
			<point x="378" y="126"/>
			<point x="330" y="90"/>
			<point x="263" y="90" type="curve" smooth="yes"/>
			<point x="201" y="90"/>
			<point x="162" y="130"/>
			<point x="162" y="187" type="curve" smooth="yes"/>
			<point x="162" y="261"/>
			<point x="228" y="316"/>
			<point x="315" y="340" type="curve"/>
			<point x="307" y="422" type="line"/>
			<point x="129" y="372"/>
			<point x="24" y="287"/>
			<point x="24" y="168" type="curve" smooth="yes"/>
			<point x="24" y="60"/>
			<point x="118" y="-16"/>
			<point x="246" y="-16" type="curve" smooth="yes"/>
			<point x="352" y="-16"/>
			<point x="435" y="37"/>
			<point x="534" y="149" type="curve" smooth="yes"/>
			<point x="657" y="289" type="line"/>
			<point x="576" y="357" type="line"/>
		</contour>
		<contour>
			<point x="542" y="-16" type="line"/>
			<point x="632" y="62" type="line"/>
			<point x="367" y="381" type="line"/>
			<point x="351" y="401" type="line" smooth="yes"/>
			<point x="300" y="458"/>
			<point x="286" y="494"/>
			<point x="286" y="531" type="curve" smooth="yes"/>
			<point x="286" y="588"/>
			<point x="327" y="632"/>
			<point x="376" y="632" type="curve" smooth="yes"/>
			<point x="419" y="632"/>
			<point x="448" y="600"/>
			<point x="448" y="558" type="curve" smooth="yes"/>
			<point x="448" y="495"/>
			<point x="386" y="449"/>
			<point x="317" y="428" type="curve"/>
			<point x="319" y="347" type="line"/>
			<point x="460" y="384"/>
			<point x="565" y="465"/>
			<point x="565" y="572" type="curve" smooth="yes"/>
			<point x="565" y="670"/>
			<point x="479" y="731"/>
			<point x="378" y="731" type="curve" smooth="yes"/>
			<point x="254" y="731"/>
			<point x="163" y="639"/>
			<point x="163" y="528" type="curve" smooth="yes"/>
			<point x="163" y="467"/>
			<point x="190" y="417"/>
			<point x="246" y="354" type="curve"/>
			<point x="257" y="337" type="line"/>
		</contour>
	</outline>
</glyph>
<glyph name="quotesingle" format="2">
	<unicode hex="0027"/>
	<advance width="265"/>
	<outline>
		<contour>
			<point x="198" y="450" type="line"/>
			<point x="234" y="527"/>
			<point x="287" y="656"/>
			<point x="287" y="697" type="curve" smooth="yes"/>
			<point x="287" y="728"/>
			<point x="264" y="747"/>
			<point x="235" y="747" type="curve" smooth="yes"/>
			<point x="198" y="747"/>
			<point x="171" y="722"/>
			<point x="162" y="681" type="curve" smooth="yes"/>
			<point x="154" y="646"/>
			<point x="150" y="540"/>
			<point x="151" y="450" type="curve"/>
		</contour>
	</outline>
	<guideline y="747"/>
</glyph>
<glyph name="parenleft" format="2">
	<unicode hex="0028"/>
	<advance width="355"/>
	<outline>
		<contour>
			<point x="241" y="-129" type="line"/>
			<point x="202" y="-37"/>
			<point x="183" y="56"/>
			<point x="183" y="152" type="curve" smooth="yes"/>
			<point x="183" y="367"/>
			<point x="276" y="575"/>
			<point x="425" y="731" type="curve"/>
			<point x="290" y="731" type="line"/>
			<point x="141" y="578"/>
			<point x="50" y="370"/>
			<point x="50" y="155" type="curve" smooth="yes"/>
			<point x="50" y="58"/>
			<point x="68" y="-37"/>
			<point x="109" y="-129" type="curve"/>
		</contour>
	</outline>
</glyph>
<glyph name="parenright" format="2">
	<unicode hex="0029"/>
	<advance width="354"/>
	<outline>
		<contour>
			<point x="87" y="-129" type="line"/>
			<point x="234" y="22"/>
			<point x="326" y="227"/>
			<point x="326" y="451" type="curve" smooth="yes"/>
			<point x="326" y="537"/>
			<point x="307" y="645"/>
			<point x="267" y="731" type="curve"/>
			<point x="136" y="731" type="line"/>
			<point x="175" y="641"/>
			<point x="193" y="538"/>
			<point x="193" y="451" type="curve" smooth="yes"/>
			<point x="193" y="231"/>
			<point x="98" y="26"/>
			<point x="-47" y="-129" type="curve"/>
		</contour>
	</outline>
</glyph>
<glyph name="asterisk" format="2">
	<unicode hex="002A"/>
	<advance width="422"/>
	<outline>
		<contour>
			<point x="229" y="507" type="curve"/>
			<point x="181" y="475"/>
			<point x="138" y="441"/>
			<point x="119" y="422" type="curve" smooth="yes"/>
			<point x="105" y="409"/>
			<point x="98" y="392"/>
			<point x="98" y="375" type="curve" smooth="yes"/>
			<point x="98" y="353"/>
			<point x="115" y="336"/>
			<point x="139" y="336" type="curve" smooth="yes"/>
			<point x="157" y="336"/>
			<point x="175" y="345"/>
			<point x="187" y="359" type="curve" smooth="yes"/>
			<point x="203" y="379"/>
			<point x="234" y="430"/>
			<point x="259" y="478" type="curve"/>
			<point x="265" y="430"/>
			<point x="276" y="378"/>
			<point x="285" y="359" type="curve" smooth="yes"/>
			<point x="292" y="344"/>
			<point x="303" y="336"/>
			<point x="319" y="336" type="curve" smooth="yes"/>
			<point x="350" y="336"/>
			<point x="379" y="365"/>
			<point x="379" y="395" type="curve" smooth="yes"/>
			<point x="379" y="407"/>
			<point x="376" y="415"/>
			<point x="368" y="428" type="curve" smooth="yes"/>
			<point x="356" y="447"/>
			<point x="328" y="479"/>
			<point x="301" y="506" type="curve"/>
			<point x="353" y="508"/>
			<point x="400" y="513"/>
			<point x="420" y="520" type="curve"/>
			<point x="448" y="528"/>
			<point x="469" y="552"/>
			<point x="469" y="580" type="curve" smooth="yes"/>
			<point x="469" y="603"/>
			<point x="454" y="618"/>
			<point x="432" y="618" type="curve" smooth="yes"/>
			<point x="422" y="618"/>
			<point x="410" y="616"/>
			<point x="392" y="608" type="curve" smooth="yes"/>
			<point x="371" y="598"/>
			<point x="339" y="578"/>
			<point x="297" y="550" type="curve"/>
			<point x="331" y="621"/>
			<point x="352" y="673"/>
			<point x="352" y="694" type="curve" smooth="yes"/>
			<point x="352" y="718"/>
			<point x="337" y="732"/>
			<point x="313" y="732" type="curve" smooth="yes"/>
			<point x="283" y="732"/>
			<point x="260" y="711"/>
			<point x="253" y="679" type="curve" smooth="yes"/>
			<point x="251" y="669"/>
			<point x="249" y="650"/>
			<point x="249" y="628" type="curve" smooth="yes"/>
			<point x="249" y="605"/>
			<point x="250" y="577"/>
			<point x="252" y="550" type="curve"/>
			<point x="225" y="575"/>
			<point x="200" y="595"/>
			<point x="182" y="607" type="curve" smooth="yes"/>
			<point x="170" y="614"/>
			<point x="161" y="618"/>
			<point x="146" y="618" type="curve" smooth="yes"/>
			<point x="114" y="618"/>
			<point x="87" y="585"/>
			<point x="87" y="555" type="curve" smooth="yes"/>
			<point x="87" y="539"/>
			<point x="97" y="526"/>
			<point x="115" y="520" type="curve" smooth="yes"/>
			<point x="133" y="513"/>
			<point x="175" y="509"/>
		</contour>
	</outline>
</glyph>
<glyph name="plus" format="2">
	<unicode hex="002B"/>
	<advance width="632"/>
	<outline>
		<contour>
			<point x="237" y="146" type="line"/>
			<point x="343" y="146" type="line"/>
			<point x="375" y="304" type="line"/>
			<point x="528" y="304" type="line"/>
			<point x="550" y="411" type="line"/>
			<point x="398" y="411" type="line"/>
			<point x="431" y="569" type="line"/>
			<point x="325" y="569" type="line"/>
			<point x="293" y="411" type="line"/>
			<point x="140" y="411" type="line"/>
			<point x="118" y="304" type="line"/>
			<point x="270" y="304" type="line"/>
		</contour>
	</outline>
</glyph>
<glyph name="comma" format="2">
	<unicode hex="002C"/>
	<advance width="264"/>
	<outline>
		<contour>
			<point x="35" y="-151" type="line"/>
			<point x="120" y="-81"/>
			<point x="179" y="12"/>
			<point x="179" y="79" type="curve" smooth="yes"/>
			<point x="179" y="124"/>
			<point x="148" y="154"/>
			<point x="104" y="154" type="curve" smooth="yes"/>
			<point x="52" y="154"/>
			<point x="10" y="113"/>
			<point x="10" y="60" type="curve" smooth="yes"/>
			<point x="10" y="18"/>
			<point x="40" y="-12"/>
			<point x="83" y="-12" type="curve"/>
			<point x="75" y="36" type="line"/>
			<point x="61" y="-25"/>
			<point x="18" y="-88"/>
			<point x="-45" y="-151" type="curve"/>
		</contour>
	</outline>
</glyph>
<glyph name="hyphen" format="2">
	<unicode hex="002D"/>
	<advance width="322"/>
	<outline>
		<contour>
			<point x="23" y="221" type="line"/>
			<point x="287" y="221" type="line"/>
			<point x="311" y="334" type="line"/>
			<point x="47" y="334" type="line"/>
		</contour>
	</outline>
</glyph>
<glyph name="period" format="2">
	<unicode hex="002E"/>
	<advance width="264"/>
	<outline>
		<contour>
			<point x="10" y="59" type="curve" smooth="yes"/>
			<point x="10" y="16"/>
			<point x="41" y="-13"/>
			<point x="85" y="-13" type="curve" smooth="yes"/>
			<point x="138" y="-13"/>
			<point x="179" y="27"/>
			<point x="179" y="80" type="curve" smooth="yes"/>
			<point x="179" y="124"/>
			<point x="148" y="154"/>
			<point x="105" y="154" type="curve" smooth="yes"/>
			<point x="51" y="154"/>
			<point x="10" y="112"/>
		</contour>
	</outline>
</glyph>
<glyph name="slash" format="2">
	<unicode hex="002F"/>
	<advance width="503"/>
	<outline>
		<contour>
			<point x="-1" y="0" type="line"/>
			<point x="128" y="0" type="line"/>
			<point x="554" y="732" type="line"/>
			<point x="425" y="732" type="line"/>
		</contour>
	</outline>
</glyph>
<glyph name="one" format="2">
	<unicode hex="0031"/>
	<advance width="505"/>
	<outline>
		<contour>
			<point x="195" y="0" type="line"/>
			<point x="330" y="0" type="line"/>
			<point x="482" y="715" type="line"/>
			<point x="368" y="715" type="line"/>
			<point x="154" y="587" type="line"/>
			<point x="124" y="445" type="line"/>
			<point x="314" y="564" type="line"/>
		</contour>
	</outline>
</glyph>
<glyph name="two" format="2">
	<unicode hex="0032"/>
	<advance width="548"/>
	<outline>
		<contour>
			<point x="-6" y="0" type="line"/>
			<point x="465" y="0" type="line"/>
			<point x="488" y="109" type="line"/>
			<point x="169" y="109" type="line"/>
			<point x="175" y="90" type="line"/>
			<point x="347" y="229" type="line" smooth="yes"/>
			<point x="520" y="368"/>
			<point x="572" y="442"/>
			<point x="572" y="548" type="curve" smooth="yes"/>
			<point x="572" y="656"/>
			<point x="485" y="731"/>
			<point x="360" y="731" type="curve" smooth="yes"/>
			<point x="261" y="731"/>
			<point x="175" y="687"/>
			<point x="101" y="600" type="curve"/>
			<point x="176" y="514" type="line"/>
			<point x="227" y="581"/>
			<point x="286" y="617"/>
			<point x="344" y="617" type="curve" smooth="yes"/>
			<point x="404" y="617"/>
			<point x="442" y="585"/>
			<point x="442" y="534" type="curve" smooth="yes"/>
			<point x="442" y="474"/>
			<point x="408" y="425"/>
			<point x="307" y="341" type="curve" smooth="yes"/>
			<point x="16" y="109" type="line"/>
		</contour>
	</outline>
</glyph>
<glyph name="three" format="2">
	<unicode hex="0033"/>
	<advance width="583"/>
	<outline>
		<contour>
			<point x="-3" y="121" type="line"/>
			<point x="47" y="35"/>
			<point x="142" y="-16"/>
			<point x="251" y="-16" type="curve" smooth="yes"/>
			<point x="411" y="-16"/>
			<point x="533" y="87"/>
			<point x="533" y="221" type="curve" smooth="yes"/>
			<point x="533" y="324"/>
			<point x="456" y="396"/>
			<point x="315" y="396" type="curve" smooth="yes"/>
			<point x="282" y="396" type="line"/>
			<point x="274" y="358" type="line"/>
			<point x="320" y="358" type="line" smooth="yes"/>
			<point x="473" y="358"/>
			<point x="573" y="437"/>
			<point x="573" y="553" type="curve" smooth="yes"/>
			<point x="573" y="657"/>
			<point x="483" y="731"/>
			<point x="356" y="731" type="curve" smooth="yes"/>
			<point x="264" y="731"/>
			<point x="179" y="695"/>
			<point x="115" y="628" type="curve"/>
			<point x="182" y="533" type="line"/>
			<point x="232" y="590"/>
			<point x="282" y="618"/>
			<point x="338" y="618" type="curve" smooth="yes"/>
			<point x="394" y="618"/>
			<point x="433" y="583"/>
			<point x="433" y="532" type="curve" smooth="yes"/>
			<point x="433" y="471"/>
			<point x="376" y="425"/>
			<point x="300" y="425" type="curve" smooth="yes"/>
			<point x="245" y="425" type="line"/>
			<point x="221" y="314" type="line"/>
			<point x="279" y="314" type="line" smooth="yes"/>
			<point x="350" y="314"/>
			<point x="394" y="277"/>
			<point x="394" y="217" type="curve" smooth="yes"/>
			<point x="394" y="147"/>
			<point x="337" y="95"/>
			<point x="260" y="95" type="curve" smooth="yes"/>
			<point x="190" y="95"/>
			<point x="132" y="134"/>
			<point x="98" y="202" type="curve"/>
		</contour>
	</outline>
</glyph>
<glyph name="five" format="2">
	<unicode hex="0035"/>
	<advance width="575"/>
	<outline>
		<contour>
			<point x="3" y="121" type="line"/>
			<point x="51" y="36"/>
			<point x="143" y="-16"/>
			<point x="248" y="-16" type="curve" smooth="yes"/>
			<point x="419" y="-16"/>
			<point x="546" y="108"/>
			<point x="546" y="273" type="curve" smooth="yes"/>
			<point x="546" y="397"/>
			<point x="464" y="486"/>
			<point x="350" y="486" type="curve" smooth="yes"/>
			<point x="272" y="486"/>
			<point x="216" y="451"/>
			<point x="171" y="376" type="curve"/>
			<point x="201" y="376" type="line"/>
			<point x="300" y="673" type="line"/>
			<point x="222" y="606" type="line"/>
			<point x="574" y="606" type="line"/>
			<point x="597" y="715" type="line"/>
			<point x="198" y="715" type="line"/>
			<point x="64" y="305" type="line"/>
			<point x="178" y="305" type="line"/>
			<point x="213" y="353"/>
			<point x="255" y="377"/>
			<point x="303" y="377" type="curve" smooth="yes"/>
			<point x="371" y="377"/>
			<point x="413" y="333"/>
			<point x="413" y="262" type="curve" smooth="yes"/>
			<point x="413" y="168"/>
			<point x="344" y="95"/>
			<point x="253" y="95" type="curve" smooth="yes"/>
			<point x="191" y="95"/>
			<point x="133" y="136"/>
			<point x="104" y="202" type="curve"/>
		</contour>
	</outline>
</glyph>
<glyph name="six" format="2">
	<unicode hex="0036"/>
	<advance width="627"/>
	<outline>
		<contour>
			<point x="380" y="479" type="curve" smooth="yes"/>
			<point x="318" y="479"/>
			<point x="268" y="454"/>
			<point x="233" y="405" type="curve"/>
			<point x="240" y="398" type="line"/>
			<point x="304" y="493"/>
			<point x="409" y="584"/>
			<point x="604" y="715" type="curve"/>
			<point x="408" y="715" type="line"/>
			<point x="161" y="544"/>
			<point x="46" y="382"/>
			<point x="46" y="207" type="curve" smooth="yes"/>
			<point x="46" y="77"/>
			<point x="142" y="-16"/>
			<point x="277" y="-16" type="curve" smooth="yes"/>
			<point x="446" y="-16"/>
			<point x="578" y="114"/>
			<point x="578" y="280" type="curve" smooth="yes"/>
			<point x="578" y="395"/>
			<point x="494" y="479"/>
		</contour>
		<contour>
			<point x="331" y="373" type="curve" smooth="yes"/>
			<point x="398" y="373"/>
			<point x="444" y="327"/>
			<point x="444" y="259" type="curve" smooth="yes"/>
			<point x="444" y="167"/>
			<point x="375" y="94"/>
			<point x="290" y="94" type="curve" smooth="yes"/>
			<point x="223" y="94"/>
			<point x="177" y="141"/>
			<point x="177" y="209" type="curve" smooth="yes"/>
			<point x="177" y="300"/>
			<point x="245" y="373"/>
		</contour>
	</outline>
</glyph>
<glyph name="seven" format="2">
	<unicode hex="0037"/>
	<advance width="595"/>
	<outline>
		<contour>
			<point x="27" y="0" type="line"/>
			<point x="182" y="0" type="line"/>
			<point x="618" y="607" type="line"/>
			<point x="641" y="715" type="line"/>
			<point x="155" y="715" type="line"/>
			<point x="132" y="606" type="line"/>
			<point x="519" y="606" type="line"/>
			<point x="519" y="672" type="line"/>
		</contour>
	</outline>
	<guideline x="3" y="0" angle="102"/>
</glyph>
<glyph name="eight" format="2">
	<unicode hex="0038"/>
	<advance width="609"/>
	<outline>
		<contour>
			<point x="386" y="731" type="curve" smooth="yes"/>
			<point x="240" y="731"/>
			<point x="123" y="635"/>
			<point x="123" y="516" type="curve" smooth="yes"/>
			<point x="123" y="440"/>
			<point x="179" y="379"/>
			<point x="265" y="360" type="curve"/>
			<point x="265" y="400" type="line"/>
			<point x="128" y="378"/>
			<point x="31" y="287"/>
			<point x="31" y="179" type="curve" smooth="yes"/>
			<point x="31" y="61"/>
			<point x="124" y="-16"/>
			<point x="268" y="-16" type="curve" smooth="yes"/>
			<point x="432" y="-16"/>
			<point x="559" y="87"/>
			<point x="559" y="220" type="curve" smooth="yes"/>
			<point x="559" y="309"/>
			<point x="497" y="376"/>
			<point x="393" y="399" type="curve"/>
			<point x="393" y="363" type="line"/>
			<point x="510" y="374"/>
			<point x="600" y="460"/>
			<point x="600" y="562" type="curve" smooth="yes"/>
			<point x="600" y="661"/>
			<point x="512" y="731"/>
		</contour>
		<contour>
			<point x="310" y="316" type="curve" smooth="yes"/>
			<point x="380" y="316"/>
			<point x="423" y="279"/>
			<point x="423" y="220" type="curve" smooth="yes"/>
			<point x="423" y="149"/>
			<point x="361" y="94"/>
			<point x="280" y="94" type="curve" smooth="yes"/>
			<point x="210" y="94"/>
			<point x="167" y="131"/>
			<point x="167" y="190" type="curve" smooth="yes"/>
			<point x="167" y="261"/>
			<point x="229" y="316"/>
		</contour>
		<contour>
			<point x="377" y="623" type="curve" smooth="yes"/>
			<point x="433" y="623"/>
			<point x="469" y="590"/>
			<point x="469" y="539" type="curve" smooth="yes"/>
			<point x="469" y="475"/>
			<point x="416" y="424"/>
			<point x="348" y="424" type="curve" smooth="yes"/>
			<point x="291" y="424"/>
			<point x="255" y="457"/>
			<point x="255" y="509" type="curve" smooth="yes"/>
			<point x="255" y="573"/>
			<point x="308" y="623"/>
		</contour>
	</outline>
</glyph>
<glyph name="nine" format="2">
	<unicode hex="0039"/>
	<advance width="621"/>
	<outline>
		<contour>
			<point x="397" y="731" type="curve" smooth="yes"/>
			<point x="224" y="731"/>
			<point x="96" y="597"/>
			<point x="96" y="435" type="curve" smooth="yes"/>
			<point x="96" y="315"/>
			<point x="185" y="236"/>
			<point x="294" y="236" type="curve" smooth="yes"/>
			<point x="355" y="236"/>
			<point x="406" y="261"/>
			<point x="441" y="310" type="curve"/>
			<point x="434" y="317" type="line"/>
			<point x="373" y="227"/>
			<point x="274" y="137"/>
			<point x="70" y="0" type="curve"/>
			<point x="265" y="0" type="line"/>
			<point x="442" y="122"/>
			<point x="628" y="289"/>
			<point x="628" y="508" type="curve" smooth="yes"/>
			<point x="628" y="646"/>
			<point x="524" y="731"/>
		</contour>
		<contour>
			<point x="384" y="621" type="curve" smooth="yes"/>
			<point x="457" y="621"/>
			<point x="497" y="568"/>
			<point x="497" y="506" type="curve" smooth="yes"/>
			<point x="497" y="415"/>
			<point x="429" y="342"/>
			<point x="343" y="342" type="curve" smooth="yes"/>
			<point x="270" y="342"/>
			<point x="230" y="394"/>
			<point x="230" y="456" type="curve" smooth="yes"/>
			<point x="230" y="547"/>
			<point x="298" y="621"/>
		</contour>
	</outline>
</glyph>
<glyph name="less" format="2">
	<unicode hex="003C"/>
	<advance width="632"/>
	<outline>
		<contour>
			<point x="119" y="288" type="line"/>
			<point x="483" y="114" type="line"/>
			<point x="509" y="231" type="line"/>
			<point x="232" y="355" type="line"/>
			<point x="561" y="479" type="line"/>
			<point x="586" y="604" type="line"/>
			<point x="149" y="430" type="line"/>
		</contour>
	</outline>
</glyph>
<glyph name="greater" format="2">
	<unicode hex="003E"/>
	<advance width="632"/>
	<outline>
		<contour>
			<point x="552" y="430" type="line"/>
			<point x="188" y="604" type="line"/>
			<point x="162" y="487" type="line"/>
			<point x="439" y="363" type="line"/>
			<point x="110" y="239" type="line"/>
			<point x="85" y="114" type="line"/>
			<point x="522" y="288" type="line"/>
		</contour>
	</outline>
</glyph>
<glyph name="at" format="2">
	<unicode hex="0040"/>
	<advance width="999"/>
	<outline>
		<contour>
			<point x="639" y="-15" type="line"/>
			<point x="579" y="-63"/>
			<point x="501" y="-89"/>
			<point x="425" y="-89" type="curve" smooth="yes"/>
			<point x="271" y="-89"/>
			<point x="172" y="20"/>
			<point x="172" y="193" type="curve" smooth="yes"/>
			<point x="172" y="428"/>
			<point x="344" y="625"/>
			<point x="569" y="625" type="curve" smooth="yes"/>
			<point x="730" y="625"/>
			<point x="829" y="531"/>
			<point x="829" y="369" type="curve" smooth="yes"/>
			<point x="829" y="243"/>
			<point x="782" y="146"/>
			<point x="723" y="146" type="curve" smooth="yes"/>
			<point x="689" y="146"/>
			<point x="679" y="170"/>
			<point x="679" y="195" type="curve" smooth="yes"/>
			<point x="679" y="210"/>
			<point x="681" y="223"/>
			<point x="683" y="234" type="curve" smooth="yes"/>
			<point x="732" y="465" type="line"/>
			<point x="631" y="465" type="line"/>
			<point x="608" y="355" type="line"/>
			<point x="628" y="352" type="line"/>
			<point x="625" y="430"/>
			<point x="575" y="478"/>
			<point x="497" y="478" type="curve" smooth="yes"/>
			<point x="376" y="478"/>
			<point x="274" y="362"/>
			<point x="274" y="222" type="curve" smooth="yes"/>
			<point x="274" y="113"/>
			<point x="337" y="44"/>
			<point x="435" y="44" type="curve" smooth="yes"/>
			<point x="518" y="44"/>
			<point x="585" y="108"/>
			<point x="619" y="219" type="curve"/>
			<point x="586" y="257" type="line"/>
			<point x="557" y="173"/>
			<point x="510" y="136"/>
			<point x="464" y="136" type="curve" smooth="yes"/>
			<point x="413" y="136"/>
			<point x="385" y="173"/>
			<point x="385" y="230" type="curve" smooth="yes"/>
			<point x="385" y="321"/>
			<point x="440" y="387"/>
			<point x="506" y="387" type="curve" smooth="yes"/>
			<point x="557" y="387"/>
			<point x="587" y="353"/>
			<point x="587" y="289" type="curve" smooth="yes"/>
			<point x="587" y="269"/>
			<point x="583" y="237"/>
			<point x="579" y="216" type="curve" smooth="yes"/>
			<point x="577" y="204"/>
			<point x="575" y="185"/>
			<point x="575" y="171" type="curve" smooth="yes"/>
			<point x="575" y="96"/>
			<point x="626" y="44"/>
			<point x="712" y="44" type="curve" smooth="yes"/>
			<point x="846" y="44"/>
			<point x="945" y="181"/>
			<point x="945" y="366" type="curve" smooth="yes"/>
			<point x="945" y="586"/>
			<point x="792" y="731"/>
			<point x="572" y="731" type="curve" smooth="yes"/>
			<point x="280" y="731"/>
			<point x="58" y="480"/>
			<point x="58" y="179" type="curve" smooth="yes"/>
			<point x="58" y="-46"/>
			<point x="206" y="-194"/>
			<point x="407" y="-194" type="curve" smooth="yes"/>
			<point x="522" y="-194"/>
			<point x="624" y="-158"/>
			<point x="694" y="-105" type="curve"/>
		</contour>
	</outline>
	<guideline y="136"/>
	<guideline y="478"/>
</glyph>
<glyph name="C" format="2">
	<unicode hex="0043"/>
	<advance width="707"/>
	<outline>
		<contour>
			<point x="591" y="214" type="line"/>
			<point x="536" y="141"/>
			<point x="464" y="103"/>
			<point x="389" y="103" type="curve" smooth="yes"/>
			<point x="288" y="103"/>
			<point x="209" y="175"/>
			<point x="209" y="302" type="curve" smooth="yes"/>
			<point x="209" y="472"/>
			<point x="323" y="612"/>
			<point x="468" y="612" type="curve" smooth="yes"/>
			<point x="545" y="612"/>
			<point x="597" y="581"/>
			<point x="639" y="513" type="curve"/>
			<point x="739" y="598" type="line"/>
			<point x="681" y="684"/>
			<point x="588" y="731"/>
			<point x="471" y="731" type="curve" smooth="yes"/>
			<point x="249" y="731"/>
			<point x="67" y="536"/>
			<point x="67" y="302" type="curve" smooth="yes"/>
			<point x="67" y="107"/>
			<point x="192" y="-16"/>
			<point x="387" y="-16" type="curve" smooth="yes"/>
			<point x="493" y="-16"/>
			<point x="593" y="32"/>
			<point x="667" y="117" type="curve"/>
		</contour>
	</outline>
	<anchor name="top.UC" x="474" y="750"/>
	<anchor name="bottom.UC" x="370" y="-50"/>
</glyph>
<glyph name="E" format="2">
	<unicode hex="0045"/>
	<advance width="600"/>
	<outline>
		<contour>
			<point x="35" y="0" type="line"/>
			<point x="516" y="0" type="line"/>
			<point x="540" y="114" type="line"/>
			<point x="194" y="114" type="line"/>
			<point x="297" y="601" type="line"/>
			<point x="628" y="601" type="line"/>
			<point x="653" y="715" type="line"/>
			<point x="186" y="715" type="line"/>
		</contour>
		<contour>
			<point x="225" y="305" type="line"/>
			<point x="548" y="305" type="line"/>
			<point x="572" y="419" type="line"/>
			<point x="249" y="419" type="line"/>
		</contour>
	</outline>
	<anchor name="ogonek.UC" x="396" y="-30"/>
	<anchor name="top.UC" x="427" y="750"/>
</glyph>
<glyph name="F" format="2">
	<unicode hex="0046"/>
	<advance width="572"/>
	<outline>
		<contour>
			<point x="35" y="0" type="line"/>
			<point x="170" y="0" type="line"/>
			<point x="297" y="601" type="line"/>
			<point x="613" y="601" type="line"/>
			<point x="638" y="715" type="line"/>
			<point x="186" y="715" type="line"/>
		</contour>
		<contour>
			<point x="224" y="301" type="line"/>
			<point x="532" y="301" type="line"/>
			<point x="556" y="415" type="line"/>
			<point x="249" y="415" type="line"/>
		</contour>
	</outline>
</glyph>
<glyph name="G" format="2">
	<unicode hex="0047"/>
	<advance width="759"/>
	<outline>
		<contour>
			<point x="535" y="0" type="line"/>
			<point x="660" y="0" type="line"/>
			<point x="743" y="391" type="line"/>
			<point x="430" y="391" type="line"/>
			<point x="407" y="282" type="line"/>
			<point x="639" y="282" type="line"/>
			<point x="602" y="320" type="line"/>
			<point x="562" y="133" type="line"/>
			<point x="604" y="237" type="line"/>
			<point x="560" y="153"/>
			<point x="479" y="103"/>
			<point x="388" y="103" type="curve" smooth="yes"/>
			<point x="281" y="103"/>
			<point x="209" y="183"/>
			<point x="209" y="302" type="curve" smooth="yes"/>
			<point x="209" y="472"/>
			<point x="323" y="612"/>
			<point x="474" y="612" type="curve" smooth="yes"/>
			<point x="549" y="612"/>
			<point x="604" y="579"/>
			<point x="646" y="513" type="curve"/>
			<point x="744" y="594" type="line"/>
			<point x="686" y="683"/>
			<point x="591" y="731"/>
			<point x="477" y="731" type="curve" smooth="yes"/>
			<point x="249" y="731"/>
			<point x="67" y="537"/>
			<point x="67" y="302" type="curve" smooth="yes"/>
			<point x="67" y="112"/>
			<point x="186" y="-16"/>
			<point x="359" y="-16" type="curve" smooth="yes"/>
			<point x="450" y="-16"/>
			<point x="526" y="25"/>
			<point x="580" y="102" type="curve"/>
			<point x="555" y="98" type="line"/>
		</contour>
	</outline>
	<anchor name="top.UC" x="481" y="750"/>
	<anchor name="bottom.UC" x="366" y="-50"/>
</glyph>
<glyph name="H" format="2">
	<unicode hex="0048"/>
	<advance width="744"/>
	<outline>
		<contour>
			<point x="468" y="0" type="line"/>
			<point x="603" y="0" type="line"/>
			<point x="754" y="715" type="line"/>
			<point x="619" y="715" type="line"/>
		</contour>
		<contour>
			<point x="35" y="0" type="line"/>
			<point x="170" y="0" type="line"/>
			<point x="321" y="715" type="line"/>
			<point x="186" y="715" type="line"/>
		</contour>
		<contour>
			<point x="226" y="310" type="line"/>
			<point x="543" y="310" type="line"/>
			<point x="567" y="425" type="line"/>
			<point x="250" y="425" type="line"/>
		</contour>
	</outline>
	<anchor name="top.UC" x="477" y="750"/>
	<anchor name="bottom.UC" x="316" y="-50"/>
</glyph>
<glyph name="J" format="2">
	<unicode hex="004A"/>
	<advance width="648"/>
	<outline>
		<contour>
			<point x="34" y="246" type="line"/>
			<point x="31" y="226"/>
			<point x="31" y="211"/>
			<point x="31" y="194" type="curve" smooth="yes"/>
			<point x="31" y="57"/>
			<point x="139" y="-16"/>
			<point x="257" y="-16" type="curve" smooth="yes"/>
			<point x="445" y="-16"/>
			<point x="537" y="91"/>
			<point x="574" y="266" type="curve" smooth="yes"/>
			<point x="669" y="715" type="line"/>
			<point x="534" y="715" type="line"/>
			<point x="442" y="280" type="line" smooth="yes"/>
			<point x="418" y="166"/>
			<point x="365" y="104"/>
			<point x="277" y="104" type="curve" smooth="yes"/>
			<point x="195" y="104"/>
			<point x="163" y="154"/>
			<point x="163" y="223" type="curve" smooth="yes"/>
			<point x="163" y="235"/>
			<point x="164" y="250"/>
			<point x="166" y="261" type="curve"/>
		</contour>
	</outline>
	<anchor name="top.UC" x="608" y="750"/>
</glyph>
<glyph name="L" format="2">
	<unicode hex="004C"/>
	<advance width="570"/>
	<outline>
		<contour>
			<point x="35" y="0" type="line"/>
			<point x="486" y="0" type="line"/>
			<point x="510" y="117" type="line"/>
			<point x="196" y="117" type="line"/>
			<point x="321" y="715" type="line"/>
			<point x="186" y="715" type="line"/>
		</contour>
	</outline>
	<anchor name="top.UC" x="264" y="750"/>
	<anchor name="top_right" x="438" y="540"/>
	<anchor name="bottom.UC" x="269" y="-50"/>
</glyph>
<glyph name="N" format="2">
	<unicode hex="004E"/>
	<advance width="756"/>
	<outline>
		<contour>
			<point x="35" y="0" type="line"/>
			<point x="167" y="0" type="line"/>
			<point x="291" y="585" type="line"/>
			<point x="245" y="585" type="line"/>
			<point x="475" y="0" type="line"/>
			<point x="615" y="0" type="line"/>
			<point x="766" y="715" type="line"/>
			<point x="634" y="715" type="line"/>
			<point x="511" y="129" type="line"/>
			<point x="557" y="129" type="line"/>
			<point x="327" y="715" type="line"/>
			<point x="187" y="715" type="line"/>
		</contour>
	</outline>
	<anchor name="top.UC" x="468" y="750"/>
	<anchor name="bottom.UC" x="319" y="-50"/>
</glyph>
<glyph name="Q" format="2">
	<unicode hex="0051"/>
	<advance width="814"/>
	<outline>
		<contour>
			<point x="500" y="310" type="line"/>
			<point x="410" y="246" type="line"/>
			<point x="629" y="-56" type="line"/>
			<point x="718" y="8" type="line"/>
		</contour>
		<contour>
			<point x="478" y="731" type="curve" smooth="yes"/>
			<point x="237" y="731"/>
			<point x="67" y="514"/>
			<point x="67" y="291" type="curve" smooth="yes"/>
			<point x="67" y="107"/>
			<point x="186" y="-16"/>
			<point x="378" y="-16" type="curve" smooth="yes"/>
			<point x="620" y="-16"/>
			<point x="789" y="201"/>
			<point x="789" y="424" type="curve" smooth="yes"/>
			<point x="789" y="608"/>
			<point x="670" y="731"/>
		</contour>
		<contour>
			<point x="470" y="611" type="curve" smooth="yes"/>
			<point x="579" y="611"/>
			<point x="649" y="533"/>
			<point x="649" y="415" type="curve" smooth="yes"/>
			<point x="649" y="259"/>
			<point x="540" y="104"/>
			<point x="386" y="104" type="curve" smooth="yes"/>
			<point x="277" y="104"/>
			<point x="207" y="182"/>
			<point x="207" y="300" type="curve" smooth="yes"/>
			<point x="207" y="456"/>
			<point x="316" y="611"/>
		</contour>
	</outline>
</glyph>
<glyph name="R" format="2">
	<unicode hex="0052"/>
	<advance width="696"/>
	<outline>
		<contour>
			<point x="457" y="0" type="line"/>
			<point x="608" y="0" type="line"/>
			<point x="433" y="333" type="line"/>
			<point x="291" y="333" type="line"/>
		</contour>
		<contour>
			<point x="35" y="0" type="line"/>
			<point x="170" y="0" type="line"/>
			<point x="298" y="601" type="line"/>
			<point x="415" y="601" type="line" smooth="yes"/>
			<point x="479" y="601"/>
			<point x="512" y="568"/>
			<point x="512" y="515" type="curve" smooth="yes"/>
			<point x="512" y="441"/>
			<point x="459" y="392"/>
			<point x="372" y="392" type="curve" smooth="yes"/>
			<point x="243" y="392" type="line"/>
			<point x="218" y="278" type="line"/>
			<point x="356" y="278" type="line" smooth="yes"/>
			<point x="527" y="278"/>
			<point x="649" y="377"/>
			<point x="649" y="523" type="curve" smooth="yes"/>
			<point x="649" y="643"/>
			<point x="572" y="715"/>
			<point x="433" y="715" type="curve" smooth="yes"/>
			<point x="187" y="715" type="line"/>
		</contour>
	</outline>
	<anchor name="top.UC" x="386" y="750"/>
	<guideline x="35" y="0" angle="102"/>
	<guideline x="170" y="0" angle="102"/>
</glyph>
<glyph name="S" format="2">
	<unicode hex="0053"/>
	<advance width="651"/>
	<outline>
		<contour>
			<point x="10" y="122" type="line"/>
			<point x="64" y="38"/>
			<point x="189" y="-16"/>
			<point x="312" y="-16" type="curve" smooth="yes"/>
			<point x="476" y="-16"/>
			<point x="603" y="79"/>
			<point x="603" y="223" type="curve" smooth="yes"/>
			<point x="603" y="327"/>
			<point x="535" y="387"/>
			<point x="383" y="425" type="curve" smooth="yes"/>
			<point x="282" y="450"/>
			<point x="249" y="473"/>
			<point x="249" y="520" type="curve" smooth="yes"/>
			<point x="249" y="574"/>
			<point x="305" y="615"/>
			<point x="383" y="615" type="curve" smooth="yes"/>
			<point x="467" y="615"/>
			<point x="531" y="580"/>
			<point x="579" y="514" type="curve"/>
			<point x="673" y="595" type="line"/>
			<point x="622" y="676"/>
			<point x="519" y="731"/>
			<point x="390" y="731" type="curve" smooth="yes"/>
			<point x="233" y="731"/>
			<point x="109" y="634"/>
			<point x="109" y="498" type="curve" smooth="yes"/>
			<point x="109" y="398"/>
			<point x="176" y="342"/>
			<point x="326" y="305" type="curve" smooth="yes"/>
			<point x="429" y="280"/>
			<point x="462" y="254"/>
			<point x="462" y="205" type="curve" smooth="yes"/>
			<point x="462" y="141"/>
			<point x="406" y="100"/>
			<point x="318" y="100" type="curve" smooth="yes"/>
			<point x="229" y="100"/>
			<point x="154" y="141"/>
			<point x="105" y="204" type="curve"/>
		</contour>
	</outline>
	<anchor name="top.UC" x="401" y="750"/>
	<anchor name="bottom.UC" x="303" y="-50"/>
</glyph>
<glyph name="T" format="2">
	<unicode hex="0054"/>
	<advance width="605"/>
	<outline>
		<contour>
			<point x="183" y="0" type="line"/>
			<point x="318" y="0" type="line"/>
			<point x="446" y="609" type="line"/>
			<point x="311" y="609" type="line"/>
		</contour>
		<contour>
			<point x="106" y="599" type="line"/>
			<point x="647" y="599" type="line"/>
			<point x="672" y="715" type="line"/>
			<point x="131" y="715" type="line"/>
		</contour>
	</outline>
	<anchor name="top.UC" x="399" y="750"/>
	<anchor name="bottom.UC" x="239" y="-50"/>
</glyph>
<glyph name="U" format="2">
	<unicode hex="0055"/>
	<advance width="723"/>
	<outline>
		<contour>
			<point x="83" y="282" type="line"/>
			<point x="77" y="254"/>
			<point x="75" y="227"/>
			<point x="75" y="202" type="curve" smooth="yes"/>
			<point x="75" y="62"/>
			<point x="163" y="-16"/>
			<point x="323" y="-16" type="curve" smooth="yes"/>
			<point x="505" y="-16"/>
			<point x="612" y="90"/>
			<point x="653" y="283" type="curve" smooth="yes"/>
			<point x="744" y="715" type="line"/>
			<point x="610" y="715" type="line"/>
			<point x="519" y="282" type="line" smooth="yes"/>
			<point x="495" y="171"/>
			<point x="434" y="104"/>
			<point x="337" y="104" type="curve" smooth="yes"/>
			<point x="253" y="104"/>
			<point x="211" y="147"/>
			<point x="211" y="220" type="curve" smooth="yes"/>
			<point x="211" y="237"/>
			<point x="214" y="262"/>
			<point x="218" y="282" type="curve" smooth="yes"/>
			<point x="310" y="715" type="line"/>
			<point x="175" y="715" type="line"/>
		</contour>
	</outline>
	<anchor name="ogonek.UC.round" x="354" y="-30"/>
	<anchor name="top.UC" x="469" y="750"/>
</glyph>
<glyph name="X" format="2">
	<unicode hex="0058"/>
	<advance width="721"/>
	<outline>
		<contour>
			<point x="-21" y="0" type="line"/>
			<point x="147" y="0" type="line"/>
			<point x="393" y="301" type="line"/>
			<point x="356" y="301" type="line"/>
			<point x="484" y="0" type="line"/>
			<point x="634" y="0" type="line"/>
			<point x="455" y="389" type="line"/>
			<point x="453" y="348" type="line"/>
			<point x="764" y="715" type="line"/>
			<point x="602" y="715" type="line"/>
			<point x="382" y="436" type="line"/>
			<point x="417" y="436" type="line"/>
			<point x="305" y="715" type="line"/>
			<point x="155" y="715" type="line"/>
			<point x="319" y="348" type="line"/>
			<point x="318" y="389" type="line"/>
		</contour>
	</outline>
</glyph>
<glyph name="Y" format="2">
	<unicode hex="0059"/>
	<advance width="703"/>
	<outline>
		<contour>
			<point x="231" y="0" type="line"/>
			<point x="366" y="0" type="line"/>
			<point x="427" y="290" type="line"/>
			<point x="771" y="715" type="line"/>
			<point x="616" y="715" type="line"/>
			<point x="365" y="388" type="line"/>
			<point x="392" y="388" type="line"/>
			<point x="275" y="715" type="line"/>
			<point x="130" y="715" type="line"/>
			<point x="293" y="291" type="line"/>
		</contour>
	</outline>
	<anchor name="top.UC" x="450" y="750"/>
</glyph>
<glyph name="bracketleft" format="2">
	<unicode hex="005B"/>
	<advance width="324"/>
	<outline>
		<contour>
			<point x="-9" y="-129" type="line"/>
			<point x="216" y="-129" type="line"/>
			<point x="238" y="-24" type="line"/>
			<point x="141" y="-24" type="line"/>
			<point x="279" y="626" type="line"/>
			<point x="375" y="626" type="line"/>
			<point x="398" y="731" type="line"/>
			<point x="173" y="731" type="line"/>
		</contour>
	</outline>
</glyph>
<glyph name="backslash" format="2">
	<unicode hex="005C"/>
	<advance width="502"/>
	<outline>
		<contour>
			<point x="398" y="0" type="line"/>
			<point x="281" y="732" type="line"/>
			<point x="153" y="732" type="line"/>
			<point x="270" y="0" type="line"/>
		</contour>
	</outline>
</glyph>
<glyph name="bracketright" format="2">
	<unicode hex="005D"/>
	<advance width="324"/>
	<outline>
		<contour>
			<point x="-52" y="-129" type="line"/>
			<point x="172" y="-129" type="line"/>
			<point x="354" y="731" type="line"/>
			<point x="130" y="731" type="line"/>
			<point x="108" y="626" type="line"/>
			<point x="204" y="626" type="line"/>
			<point x="66" y="-24" type="line"/>
			<point x="-30" y="-24" type="line"/>
		</contour>
	</outline>
</glyph>
<glyph name="b" format="2">
	<unicode hex="0062"/>
	<advance width="633"/>
	<outline>
		<contour>
			<point x="18" y="0" type="line"/>
			<point x="150" y="0" type="line"/>
			<point x="190" y="188" type="line" smooth="yes"/>
			<point x="221" y="334"/>
			<point x="277" y="409"/>
			<point x="356" y="409" type="curve" smooth="yes"/>
			<point x="420" y="409"/>
			<point x="458" y="364"/>
			<point x="458" y="288" type="curve" smooth="yes"/>
			<point x="458" y="180"/>
			<point x="389" y="94"/>
			<point x="303" y="94" type="curve" smooth="yes"/>
			<point x="240" y="94"/>
			<point x="183" y="143"/>
			<point x="180" y="202" type="curve"/>
			<point x="141" y="154" type="line"/>
			<point x="146" y="52"/>
			<point x="219" y="-16"/>
			<point x="324" y="-16" type="curve" smooth="yes"/>
			<point x="472" y="-16"/>
			<point x="595" y="125"/>
			<point x="595" y="302" type="curve" smooth="yes"/>
			<point x="595" y="433"/>
			<point x="524" y="519"/>
			<point x="412" y="519" type="curve" smooth="yes"/>
			<point x="320" y="519"/>
			<point x="242" y="456"/>
			<point x="205" y="351" type="curve"/>
			<point x="223" y="352" type="line"/>
			<point x="301" y="720" type="line"/>
			<point x="169" y="720" type="line"/>
		</contour>
	</outline>
</glyph>
<glyph name="c" format="2">
	<unicode hex="0063"/>
	<advance width="535"/>
	<outline>
		<contour>
			<point x="411" y="165" type="line"/>
			<point x="376" y="118"/>
			<point x="332" y="94"/>
			<point x="284" y="94" type="curve" smooth="yes"/>
			<point x="212" y="94"/>
			<point x="175" y="152"/>
			<point x="175" y="217" type="curve" smooth="yes"/>
			<point x="175" y="321"/>
			<point x="242" y="409"/>
			<point x="331" y="409" type="curve" smooth="yes"/>
			<point x="388" y="409"/>
			<point x="421" y="378"/>
			<point x="442" y="335" type="curve"/>
			<point x="539" y="406" type="line"/>
			<point x="495" y="481"/>
			<point x="419" y="519"/>
			<point x="334" y="519" type="curve" smooth="yes"/>
			<point x="163" y="519"/>
			<point x="38" y="375"/>
			<point x="38" y="207" type="curve" smooth="yes"/>
			<point x="38" y="75"/>
			<point x="135" y="-16"/>
			<point x="265" y="-16" type="curve" smooth="yes"/>
			<point x="352" y="-16"/>
			<point x="419" y="18"/>
			<point x="476" y="75" type="curve"/>
		</contour>
	</outline>
	<anchor name="bottom.LC" x="257" y="-50"/>
	<anchor name="top.LC" x="345" y="544"/>
</glyph>
<glyph name="d" format="2">
	<unicode hex="0064"/>
	<advance width="629"/>
	<outline>
		<contour>
			<point x="380" y="0" type="line"/>
			<point x="508" y="0" type="line"/>
			<point x="661" y="720" type="line"/>
			<point x="530" y="720" type="line"/>
			<point x="454" y="363" type="line"/>
			<point x="480" y="364" type="line"/>
			<point x="476" y="461"/>
			<point x="416" y="519"/>
			<point x="318" y="519" type="curve" smooth="yes"/>
			<point x="162" y="519"/>
			<point x="38" y="376"/>
			<point x="38" y="198" type="curve" smooth="yes"/>
			<point x="38" y="68"/>
			<point x="107" y="-16"/>
			<point x="225" y="-16" type="curve" smooth="yes"/>
			<point x="334" y="-16"/>
			<point x="407" y="60"/>
			<point x="449" y="198" type="curve"/>
			<point x="430" y="245" type="line"/>
			<point x="399" y="152"/>
			<point x="342" y="94"/>
			<point x="277" y="94" type="curve" smooth="yes"/>
			<point x="213" y="94"/>
			<point x="175" y="137"/>
			<point x="175" y="213" type="curve" smooth="yes"/>
			<point x="175" y="319"/>
			<point x="243" y="409"/>
			<point x="333" y="409" type="curve" smooth="yes"/>
			<point x="393" y="409"/>
			<point x="430" y="364"/>
			<point x="430" y="286" type="curve" smooth="yes"/>
			<point x="430" y="261"/>
			<point x="426" y="230"/>
			<point x="418" y="191" type="curve" smooth="yes"/>
		</contour>
	</outline>
	<anchor name="top_right" x="744" y="540"/>
</glyph>
<glyph name="e" format="2">
	<unicode hex="0065"/>
	<advance width="569"/>
	<outline>
		<contour>
			<point x="124" y="212" type="line"/>
			<point x="330" y="212" type="line" smooth="yes"/>
			<point x="461" y="212"/>
			<point x="537" y="266"/>
			<point x="537" y="360" type="curve" smooth="yes"/>
			<point x="537" y="454"/>
			<point x="454" y="519"/>
			<point x="334" y="519" type="curve" smooth="yes"/>
			<point x="168" y="519"/>
			<point x="38" y="385"/>
			<point x="38" y="212" type="curve" smooth="yes"/>
			<point x="38" y="75"/>
			<point x="135" y="-16"/>
			<point x="282" y="-16" type="curve" smooth="yes"/>
			<point x="370" y="-16"/>
			<point x="442" y="14"/>
			<point x="499" y="74" type="curve"/>
			<point x="436" y="159" type="line"/>
			<point x="398" y="113"/>
			<point x="348" y="88"/>
			<point x="296" y="88" type="curve" smooth="yes"/>
			<point x="220" y="88"/>
			<point x="174" y="134"/>
			<point x="174" y="212" type="curve" smooth="yes"/>
			<point x="174" y="332"/>
			<point x="240" y="416"/>
			<point x="334" y="416" type="curve" smooth="yes"/>
			<point x="376" y="416"/>
			<point x="407" y="391"/>
			<point x="407" y="357" type="curve" smooth="yes"/>
			<point x="407" y="319"/>
			<point x="373" y="296"/>
			<point x="317" y="296" type="curve" smooth="yes"/>
			<point x="124" y="296" type="line"/>
		</contour>
	</outline>
	<anchor name="ogonek.LC.round" x="325" y="-30"/>
	<anchor name="top.LC" x="349" y="544"/>
</glyph>
<glyph name="f" format="2">
	<unicode hex="0066"/>
	<advance width="381"/>
	<outline>
		<contour>
			<point x="55" y="0" type="line"/>
			<point x="187" y="0" type="line"/>
			<point x="306" y="561" type="line" smooth="yes"/>
			<point x="314" y="601"/>
			<point x="331" y="617"/>
			<point x="363" y="617" type="curve" smooth="yes"/>
			<point x="428" y="617" type="line"/>
			<point x="450" y="720" type="line"/>
			<point x="340" y="720" type="line" smooth="yes"/>
			<point x="250" y="720"/>
			<point x="197" y="674"/>
			<point x="177" y="578" type="curve" smooth="yes"/>
		</contour>
		<contour>
			<point x="63" y="397" type="line"/>
			<point x="380" y="397" type="line"/>
			<point x="403" y="503" type="line"/>
			<point x="85" y="503" type="line"/>
		</contour>
	</outline>
	<guideline x="297" y="0" angle="102"/>
</glyph>
<glyph name="g" format="2">
	<unicode hex="0067"/>
	<advance width="621"/>
	<outline>
		<contour>
			<point x="-9" y="-117" type="line"/>
			<point x="48" y="-179"/>
			<point x="122" y="-210"/>
			<point x="217" y="-210" type="curve" smooth="yes"/>
			<point x="380" y="-210"/>
			<point x="476" y="-126"/>
			<point x="513" y="44" type="curve" smooth="yes"/>
			<point x="609" y="503" type="line"/>
			<point x="479" y="503" type="line"/>
			<point x="449" y="363" type="line"/>
			<point x="473" y="364" type="line"/>
			<point x="468" y="461"/>
			<point x="410" y="519"/>
			<point x="312" y="519" type="curve" smooth="yes"/>
			<point x="155" y="519"/>
			<point x="31" y="380"/>
			<point x="31" y="205" type="curve" smooth="yes"/>
			<point x="31" y="78"/>
			<point x="107" y="-2"/>
			<point x="219" y="-2" type="curve" smooth="yes"/>
			<point x="325" y="-2"/>
			<point x="396" y="70"/>
			<point x="449" y="212" type="curve"/>
			<point x="424" y="259" type="line"/>
			<point x="392" y="160"/>
			<point x="334" y="107"/>
			<point x="270" y="107" type="curve" smooth="yes"/>
			<point x="206" y="107"/>
			<point x="170" y="148"/>
			<point x="170" y="220" type="curve" smooth="yes"/>
			<point x="170" y="322"/>
			<point x="237" y="410"/>
			<point x="325" y="410" type="curve" smooth="yes"/>
			<point x="389" y="410"/>
			<point x="424" y="367"/>
			<point x="424" y="286" type="curve" smooth="yes"/>
			<point x="424" y="266"/>
			<point x="421" y="235"/>
			<point x="416" y="210" type="curve" smooth="yes"/>
			<point x="381" y="46" type="line" smooth="yes"/>
			<point x="360" y="-50"/>
			<point x="303" y="-101"/>
			<point x="217" y="-101" type="curve" smooth="yes"/>
			<point x="157" y="-101"/>
			<point x="110" y="-78"/>
			<point x="68" y="-30" type="curve"/>
		</contour>
	</outline>
	<anchor name="top.LC" x="327" y="544"/>
</glyph>
<glyph name="l" format="2">
	<unicode hex="006C"/>
	<advance width="308"/>
	<outline>
		<contour>
			<point x="54" y="168" type="line"/>
			<point x="48" y="141"/>
			<point x="45" y="120"/>
			<point x="45" y="105" type="curve" smooth="yes"/>
			<point x="45" y="32"/>
			<point x="82" y="0"/>
			<point x="167" y="0" type="curve" smooth="yes"/>
			<point x="240" y="0" type="line"/>
			<point x="263" y="109" type="line"/>
			<point x="215" y="109" type="line" smooth="yes"/>
			<point x="192" y="109"/>
			<point x="182" y="118"/>
			<point x="182" y="139" type="curve" smooth="yes"/>
			<point x="182" y="149"/>
			<point x="183" y="157"/>
			<point x="186" y="171" type="curve" smooth="yes"/>
			<point x="303" y="720" type="line"/>
			<point x="171" y="720" type="line"/>
		</contour>
	</outline>
	<anchor name="bottom.LC" x="128" y="-50"/>
	<anchor name="top_right" x="388" y="540"/>
	<anchor name="top.LC" x="244" y="766"/>
</glyph>
<glyph name="m" format="2">
	<unicode hex="006D"/>
	<advance width="873"/>
	<outline>
		<contour>
			<point x="18" y="0" type="line"/>
			<point x="150" y="0" type="line"/>
			<point x="196" y="215" type="line" smooth="yes"/>
			<point x="223" y="342"/>
			<point x="269" y="409"/>
			<point x="335" y="409" type="curve" smooth="yes"/>
			<point x="369" y="409"/>
			<point x="390" y="384"/>
			<point x="390" y="343" type="curve" smooth="yes"/>
			<point x="390" y="332"/>
			<point x="388" y="315"/>
			<point x="384" y="297" type="curve" smooth="yes"/>
			<point x="321" y="0" type="line"/>
			<point x="453" y="0" type="line"/>
			<point x="499" y="215" type="line" smooth="yes"/>
			<point x="526" y="342"/>
			<point x="573" y="409"/>
			<point x="639" y="409" type="curve" smooth="yes"/>
			<point x="673" y="409"/>
			<point x="693" y="384"/>
			<point x="693" y="343" type="curve" smooth="yes"/>
			<point x="693" y="332"/>
			<point x="692" y="315"/>
			<point x="688" y="297" type="curve" smooth="yes"/>
			<point x="625" y="0" type="line"/>
			<point x="757" y="0" type="line"/>
			<point x="819" y="293" type="line" smooth="yes"/>
			<point x="825" y="321"/>
			<point x="828" y="347"/>
			<point x="828" y="368" type="curve" smooth="yes"/>
			<point x="828" y="464"/>
			<point x="779" y="519"/>
			<point x="696" y="519" type="curve" smooth="yes"/>
			<point x="616" y="519"/>
			<point x="544" y="468"/>
			<point x="502" y="377" type="curve"/>
			<point x="513" y="374" type="line"/>
			<point x="516" y="467"/>
			<point x="473" y="519"/>
			<point x="395" y="519" type="curve" smooth="yes"/>
			<point x="329" y="519"/>
			<point x="259" y="477"/>
			<point x="222" y="398" type="curve"/>
			<point x="232" y="395" type="line"/>
			<point x="255" y="503" type="line"/>
			<point x="124" y="503" type="line"/>
		</contour>
	</outline>
</glyph>
<glyph name="n" format="2">
	<unicode hex="006E"/>
	<advance width="590"/>
	<outline>
		<contour>
			<point x="18" y="0" type="line"/>
			<point x="150" y="0" type="line"/>
			<point x="191" y="194" type="line" smooth="yes"/>
			<point x="221" y="335"/>
			<point x="273" y="409"/>
			<point x="346" y="409" type="curve" smooth="yes"/>
			<point x="386" y="409"/>
			<point x="410" y="383"/>
			<point x="410" y="340" type="curve" smooth="yes"/>
			<point x="410" y="326"/>
			<point x="406" y="301"/>
			<point x="400" y="273" type="curve" smooth="yes"/>
			<point x="343" y="0" type="line"/>
			<point x="475" y="0" type="line"/>
			<point x="533" y="273" type="line" smooth="yes"/>
			<point x="541" y="312"/>
			<point x="545" y="340"/>
			<point x="545" y="365" type="curve" smooth="yes"/>
			<point x="545" y="459"/>
			<point x="490" y="519"/>
			<point x="407" y="519" type="curve" smooth="yes"/>
			<point x="311" y="519"/>
			<point x="227" y="443"/>
			<point x="195" y="320" type="curve"/>
			<point x="222" y="347" type="line"/>
			<point x="255" y="503" type="line"/>
			<point x="124" y="503" type="line"/>
		</contour>
	</outline>
	<anchor name="bottom.LC" x="247" y="-50"/>
	<anchor name="top.LC" x="369" y="544"/>
</glyph>
<glyph name="o" format="2">
	<unicode hex="006F"/>
	<advance width="601"/>
	<outline>
		<contour>
			<point x="38" y="212" type="curve" smooth="yes"/>
			<point x="38" y="71"/>
			<point x="129" y="-16"/>
			<point x="277" y="-16" type="curve" smooth="yes"/>
			<point x="433" y="-16"/>
			<point x="563" y="122"/>
			<point x="563" y="291" type="curve" smooth="yes"/>
			<point x="563" y="432"/>
			<point x="473" y="519"/>
			<point x="325" y="519" type="curve" smooth="yes"/>
			<point x="168" y="519"/>
			<point x="38" y="381"/>
		</contour>
		<contour>
			<point x="277" y="94" type="curve" smooth="yes"/>
			<point x="214" y="94"/>
			<point x="175" y="140"/>
			<point x="175" y="212" type="curve" smooth="yes"/>
			<point x="175" y="321"/>
			<point x="243" y="409"/>
			<point x="325" y="409" type="curve" smooth="yes"/>
			<point x="387" y="409"/>
			<point x="426" y="363"/>
			<point x="426" y="291" type="curve" smooth="yes"/>
			<point x="426" y="182"/>
			<point x="359" y="94"/>
		</contour>
	</outline>
	<anchor name="top.LC" x="346" y="544"/>
</glyph>
<glyph name="r" format="2">
	<unicode hex="0072"/>
	<advance width="399"/>
	<outline>
		<contour>
			<point x="18" y="0" type="line"/>
			<point x="150" y="0" type="line"/>
			<point x="195" y="214" type="line" smooth="yes"/>
			<point x="221" y="337"/>
			<point x="281" y="391"/>
			<point x="371" y="391" type="curve" smooth="yes"/>
			<point x="397" y="391" type="line"/>
			<point x="423" y="512" type="line"/>
			<point x="402" y="512" type="line" smooth="yes"/>
			<point x="310" y="512"/>
			<point x="235" y="444"/>
			<point x="197" y="321" type="curve"/>
			<point x="217" y="321" type="line"/>
			<point x="255" y="503" type="line"/>
			<point x="124" y="503" type="line"/>
		</contour>
	</outline>
	<anchor name="top.LC" x="285" y="544"/>
</glyph>
<glyph name="t" format="2">
	<unicode hex="0074"/>
	<advance width="383"/>
	<outline>
		<contour>
			<point x="88" y="174" type="line"/>
			<point x="83" y="148"/>
			<point x="80" y="127"/>
			<point x="80" y="110" type="curve" smooth="yes"/>
			<point x="80" y="34"/>
			<point x="123" y="0"/>
			<point x="221" y="0" type="curve" smooth="yes"/>
			<point x="299" y="0" type="line"/>
			<point x="322" y="109" type="line"/>
			<point x="262" y="109" type="line" smooth="yes"/>
			<point x="229" y="109"/>
			<point x="217" y="118"/>
			<point x="217" y="144" type="curve" smooth="yes"/>
			<point x="217" y="153"/>
			<point x="218" y="163"/>
			<point x="221" y="178" type="curve" smooth="yes"/>
			<point x="319" y="636" type="line"/>
			<point x="187" y="636" type="line"/>
		</contour>
		<contour>
			<point x="58" y="397" type="line"/>
			<point x="374" y="397" type="line"/>
			<point x="397" y="503" type="line"/>
			<point x="80" y="503" type="line"/>
		</contour>
	</outline>
	<anchor name="top_right.LC.short" x="394" y="540"/>
	<anchor name="bottom.LC" x="191" y="-50"/>
	<guideline x="-27" y="0" angle="102"/>
</glyph>
<glyph name="u" format="2">
	<unicode hex="0075"/>
	<advance width="584"/>
	<outline>
		<contour>
			<point x="461" y="0" type="line"/>
			<point x="567" y="503" type="line"/>
			<point x="435" y="503" type="line"/>
			<point x="394" y="309" type="line" smooth="yes"/>
			<point x="364" y="167"/>
			<point x="312" y="94"/>
			<point x="239" y="94" type="curve" smooth="yes"/>
			<point x="202" y="94"/>
			<point x="180" y="120"/>
			<point x="180" y="162" type="curve" smooth="yes"/>
			<point x="180" y="176"/>
			<point x="183" y="200"/>
			<point x="189" y="230" type="curve" smooth="yes"/>
			<point x="247" y="503" type="line"/>
			<point x="115" y="503" type="line"/>
			<point x="57" y="230" type="line" smooth="yes"/>
			<point x="49" y="191"/>
			<point x="45" y="155"/>
			<point x="45" y="128" type="curve" smooth="yes"/>
			<point x="45" y="42"/>
			<point x="97" y="-16"/>
			<point x="184" y="-16" type="curve" smooth="yes"/>
			<point x="271" y="-16"/>
			<point x="357" y="56"/>
			<point x="390" y="183" type="curve"/>
			<point x="363" y="157" type="line"/>
			<point x="330" y="0" type="line"/>
		</contour>
	</outline>
	<anchor name="top.LC" x="348" y="544"/>
	<anchor name="ogonek.LC" x="352" y="-30"/>
</glyph>
<glyph name="v" format="2">
	<unicode hex="0076"/>
	<advance width="556"/>
	<outline>
		<contour>
			<point x="154" y="0" type="line"/>
			<point x="286" y="0" type="line"/>
			<point x="587" y="503" type="line"/>
			<point x="452" y="503" type="line"/>
			<point x="226" y="92" type="line"/>
			<point x="254" y="92" type="line"/>
			<point x="197" y="503" type="line"/>
			<point x="63" y="503" type="line"/>
		</contour>
	</outline>
</glyph>
<glyph name="w" format="2">
	<unicode hex="0077"/>
	<advance width="774"/>
	<outline>
		<contour>
			<point x="105" y="0" type="line"/>
			<point x="235" y="0" type="line"/>
			<point x="428" y="384" type="line"/>
			<point x="391" y="384" type="line"/>
			<point x="426" y="0" type="line"/>
			<point x="556" y="0" type="line"/>
			<point x="805" y="503" type="line"/>
			<point x="676" y="503" type="line"/>
			<point x="488" y="83" type="line"/>
			<point x="521" y="83" type="line"/>
			<point x="490" y="503" type="line"/>
			<point x="384" y="503" type="line"/>
			<point x="178" y="83" type="line"/>
			<point x="212" y="83" type="line"/>
			<point x="199" y="503" type="line"/>
			<point x="71" y="503" type="line"/>
		</contour>
	</outline>
	<anchor name="top.LC" x="442" y="544"/>
</glyph>
<glyph name="x" format="2">
	<unicode hex="0078"/>
	<advance width="526"/>
	<outline>
		<contour>
			<point x="-49" y="0" type="line"/>
			<point x="105" y="0" type="line"/>
			<point x="284" y="218" type="line"/>
			<point x="224" y="218" type="line"/>
			<point x="323" y="0" type="line"/>
			<point x="466" y="0" type="line"/>
			<point x="305" y="308" type="line"/>
			<point x="309" y="223" type="line"/>
			<point x="561" y="503" type="line"/>
			<point x="407" y="503" type="line"/>
			<point x="251" y="314" type="line"/>
			<point x="292" y="314" type="line"/>
			<point x="209" y="503" type="line"/>
			<point x="65" y="503" type="line"/>
			<point x="216" y="209" type="line"/>
			<point x="225" y="305" type="line"/>
		</contour>
	</outline>
</glyph>
<glyph name="y" format="2">
	<unicode hex="0079"/>
	<advance width="558"/>
	<outline>
		<contour>
			<point x="-25" y="-194" type="line"/>
			<point x="40" y="-194" type="line" smooth="yes"/>
			<point x="144" y="-194"/>
			<point x="187" y="-165"/>
			<point x="249" y="-63" type="curve" smooth="yes"/>
			<point x="588" y="503" type="line"/>
			<point x="453" y="503" type="line"/>
			<point x="220" y="80" type="line"/>
			<point x="256" y="80" type="line"/>
			<point x="197" y="503" type="line"/>
			<point x="63" y="503" type="line"/>
			<point x="158" y="-21" type="line"/>
			<point x="164" y="21" type="line"/>
			<point x="141" y="-27" type="line" smooth="yes"/>
			<point x="121" y="-70"/>
			<point x="98" y="-86"/>
			<point x="60" y="-86" type="curve" smooth="yes"/>
			<point x="-2" y="-86" type="line"/>
		</contour>
	</outline>
	<anchor name="top.LC" x="326" y="544"/>
	<guideline x="16" y="0" angle="102"/>
</glyph>
<glyph name="z" format="2">
	<unicode hex="007A"/>
	<advance width="493"/>
	<outline>
		<contour>
			<point x="-3" y="0" type="line"/>
			<point x="405" y="0" type="line"/>
			<point x="427" y="106" type="line"/>
			<point x="179" y="106" type="line"/>
			<point x="477" y="397" type="line"/>
			<point x="500" y="503" type="line"/>
			<point x="101" y="503" type="line"/>
			<point x="79" y="397" type="line"/>
			<point x="317" y="397" type="line"/>
			<point x="20" y="108" type="line"/>
		</contour>
	</outline>
	<anchor name="top.LC" x="307" y="544"/>
	<guideline x="393" y="0" angle="102"/>
</glyph>
<glyph name="braceleft" format="2">
	<unicode hex="007B"/>
	<advance width="392"/>
	<outline>
		<contour>
			<point x="70" y="12" type="line" smooth="yes"/>
			<point x="66" y="-5"/>
			<point x="64" y="-21"/>
			<point x="64" y="-35" type="curve" smooth="yes"/>
			<point x="64" y="-98"/>
			<point x="100" y="-129"/>
			<point x="175" y="-129" type="curve" smooth="yes"/>
			<point x="268" y="-129" type="line"/>
			<point x="290" y="-26" type="line"/>
			<point x="241" y="-26" type="line" smooth="yes"/>
			<point x="213" y="-26"/>
			<point x="200" y="-16"/>
			<point x="200" y="7" type="curve" smooth="yes"/>
			<point x="200" y="13"/>
			<point x="201" y="21"/>
			<point x="203" y="32" type="curve" smooth="yes"/>
			<point x="233" y="171" type="line" smooth="yes"/>
			<point x="237" y="192"/>
			<point x="239" y="209"/>
			<point x="239" y="223" type="curve" smooth="yes"/>
			<point x="239" y="286"/>
			<point x="203" y="316"/>
			<point x="128" y="316" type="curve"/>
			<point x="122" y="290" type="line"/>
			<point x="215" y="290"/>
			<point x="266" y="335"/>
			<point x="287" y="431" type="curve" smooth="yes"/>
			<point x="318" y="572" type="line" smooth="yes"/>
			<point x="327" y="612"/>
			<point x="343" y="628"/>
			<point x="380" y="628" type="curve" smooth="yes"/>
			<point x="428" y="628" type="line"/>
			<point x="451" y="731" type="line"/>
			<point x="358" y="731" type="line" smooth="yes"/>
			<point x="267" y="731"/>
			<point x="212" y="685"/>
			<point x="192" y="590" type="curve" smooth="yes"/>
			<point x="154" y="410" type="line" smooth="yes"/>
			<point x="146" y="370"/>
			<point x="129" y="354"/>
			<point x="93" y="354" type="curve" smooth="yes"/>
			<point x="66" y="354" type="line"/>
			<point x="44" y="251" type="line"/>
			<point x="70" y="251" type="line" smooth="yes"/>
			<point x="99" y="251"/>
			<point x="112" y="241"/>
			<point x="112" y="218" type="curve" smooth="yes"/>
			<point x="112" y="213"/>
			<point x="111" y="207"/>
			<point x="108" y="195" type="curve" smooth="yes"/>
		</contour>
	</outline>
</glyph>
<glyph name="bar" format="2">
	<unicode hex="007C"/>
	<advance width="270"/>
	<outline>
		<contour>
			<point x="-8" y="-129" type="line"/>
			<point x="117" y="-129" type="line"/>
			<point x="300" y="736" type="line"/>
			<point x="174" y="736" type="line"/>
		</contour>
	</outline>
</glyph>
<glyph name="braceright" format="2">
	<unicode hex="007D"/>
	<advance width="392"/>
	<outline>
		<contour>
			<point x="-37" y="-129" type="line"/>
			<point x="56" y="-129" type="line" smooth="yes"/>
			<point x="147" y="-129"/>
			<point x="202" y="-83"/>
			<point x="222" y="12" type="curve" smooth="yes"/>
			<point x="260" y="196" type="line" smooth="yes"/>
			<point x="268" y="236"/>
			<point x="285" y="251"/>
			<point x="322" y="251" type="curve" smooth="yes"/>
			<point x="348" y="251" type="line"/>
			<point x="370" y="354" type="line"/>
			<point x="344" y="354" type="line" smooth="yes"/>
			<point x="316" y="354"/>
			<point x="303" y="364"/>
			<point x="303" y="387" type="curve" smooth="yes"/>
			<point x="303" y="392"/>
			<point x="303" y="398"/>
			<point x="306" y="410" type="curve" smooth="yes"/>
			<point x="344" y="590" type="line" smooth="yes"/>
			<point x="348" y="607"/>
			<point x="350" y="623"/>
			<point x="350" y="637" type="curve" smooth="yes"/>
			<point x="350" y="700"/>
			<point x="314" y="731"/>
			<point x="239" y="731" type="curve" smooth="yes"/>
			<point x="146" y="731" type="line"/>
			<point x="124" y="628" type="line"/>
			<point x="173" y="628" type="line" smooth="yes"/>
			<point x="201" y="628"/>
			<point x="214" y="618"/>
			<point x="214" y="595" type="curve" smooth="yes"/>
			<point x="214" y="589"/>
			<point x="213" y="581"/>
			<point x="211" y="570" type="curve" smooth="yes"/>
			<point x="182" y="435" type="line" smooth="yes"/>
			<point x="177" y="414"/>
			<point x="175" y="396"/>
			<point x="175" y="383" type="curve" smooth="yes"/>
			<point x="175" y="320"/>
			<point x="211" y="290"/>
			<point x="287" y="290" type="curve"/>
			<point x="292" y="316" type="line"/>
			<point x="200" y="316"/>
			<point x="147" y="270"/>
			<point x="127" y="175" type="curve" smooth="yes"/>
			<point x="96" y="30" type="line" smooth="yes"/>
			<point x="88" y="-10"/>
			<point x="71" y="-26"/>
			<point x="34" y="-26" type="curve" smooth="yes"/>
			<point x="-14" y="-26" type="line"/>
		</contour>
	</outline>
</glyph>
<glyph name="asciitilde" format="2">
	<unicode hex="007E"/>
	<advance width="626"/>
	<outline>
		<contour>
			<point x="234" y="465" type="curve" smooth="yes"/>
			<point x="162" y="465"/>
			<point x="106" y="420"/>
			<point x="52" y="318" type="curve"/>
			<point x="135" y="257" type="line"/>
			<point x="164" y="315"/>
			<point x="192" y="342"/>
			<point x="223" y="342" type="curve" smooth="yes"/>
			<point x="245" y="342"/>
			<point x="262" y="325"/>
			<point x="287" y="300" type="curve" smooth="yes"/>
			<point x="321" y="266"/>
			<point x="349" y="247"/>
			<point x="395" y="247" type="curve" smooth="yes"/>
			<point x="467" y="247"/>
			<point x="522" y="291"/>
			<point x="577" y="394" type="curve"/>
			<point x="494" y="455" type="line"/>
			<point x="464" y="397"/>
			<point x="436" y="370"/>
			<point x="406" y="370" type="curve" smooth="yes"/>
			<point x="384" y="370"/>
			<point x="368" y="386"/>
			<point x="342" y="411" type="curve" smooth="yes"/>
			<point x="307" y="446"/>
			<point x="281" y="465"/>
		</contour>
	</outline>
</glyph>
<glyph name="sterling" format="2">
	<unicode hex="00A3"/>
	<advance width="630"/>
	<outline>
		<contour>
			<point x="7" y="0" type="line"/>
			<point x="527" y="0" type="line"/>
			<point x="550" y="110" type="line"/>
			<point x="30" y="110" type="line"/>
		</contour>
		<contour>
			<point x="79" y="301" type="line"/>
			<point x="480" y="301" type="line"/>
			<point x="502" y="404" type="line"/>
			<point x="101" y="404" type="line"/>
		</contour>
		<contour>
			<point x="98" y="55" type="line"/>
			<point x="230" y="55" type="line"/>
			<point x="322" y="487" type="line" smooth="yes"/>
			<point x="340" y="572"/>
			<point x="380" y="617"/>
			<point x="452" y="617" type="curve" smooth="yes"/>
			<point x="503" y="617"/>
			<point x="537" y="593"/>
			<point x="561" y="536" type="curve"/>
			<point x="661" y="610" type="line"/>
			<point x="629" y="688"/>
			<point x="557" y="731"/>
			<point x="466" y="731" type="curve" smooth="yes"/>
			<point x="318" y="731"/>
			<point x="222" y="638"/>
			<point x="189" y="485" type="curve" smooth="yes"/>
		</contour>
	</outline>
</glyph>
<glyph name="currency" format="2">
	<unicode hex="00A4"/>
	<advance width="586"/>
	<outline>
		<contour>
			<point x="294" y="255" type="curve" smooth="yes"/>
			<point x="241" y="255"/>
			<point x="204" y="291"/>
			<point x="204" y="346" type="curve" smooth="yes"/>
			<point x="204" y="425"/>
			<point x="271" y="496"/>
			<point x="345" y="496" type="curve" smooth="yes"/>
			<point x="399" y="496"/>
			<point x="435" y="459"/>
			<point x="435" y="405" type="curve" smooth="yes"/>
			<point x="435" y="326"/>
			<point x="368" y="255"/>
		</contour>
		<contour>
			<point x="76" y="114" type="line"/>
			<point x="168" y="190" type="line"/>
			<point x="196" y="170"/>
			<point x="234" y="160"/>
			<point x="274" y="160" type="curve" smooth="yes"/>
			<point x="317" y="160"/>
			<point x="361" y="172"/>
			<point x="399" y="194" type="curve"/>
			<point x="459" y="120" type="line"/>
			<point x="526" y="175" type="line"/>
			<point x="468" y="247" type="line"/>
			<point x="516" y="298"/>
			<point x="543" y="359"/>
			<point x="543" y="421" type="curve" smooth="yes"/>
			<point x="543" y="448"/>
			<point x="538" y="472"/>
			<point x="526" y="497" type="curve"/>
			<point x="616" y="571" type="line"/>
			<point x="563" y="636" type="line"/>
			<point x="471" y="561" type="line"/>
			<point x="443" y="580"/>
			<point x="405" y="591"/>
			<point x="365" y="591" type="curve" smooth="yes"/>
			<point x="323" y="591"/>
			<point x="278" y="579"/>
			<point x="240" y="556" type="curve"/>
			<point x="180" y="631" type="line"/>
			<point x="113" y="576" type="line"/>
			<point x="171" y="504" type="line"/>
			<point x="123" y="453"/>
			<point x="96" y="391"/>
			<point x="96" y="330" type="curve" smooth="yes"/>
			<point x="96" y="303"/>
			<point x="101" y="278"/>
			<point x="113" y="253" type="curve"/>
			<point x="24" y="180" type="line"/>
		</contour>
	</outline>
</glyph>
<glyph name="yen" format="2">
	<unicode hex="00A5"/>
	<advance width="632"/>
	<outline>
		<contour>
			<point x="64" y="128" type="line"/>
			<point x="515" y="128" type="line"/>
			<point x="535" y="220" type="line"/>
			<point x="84" y="220" type="line"/>
		</contour>
		<contour>
			<point x="97" y="283" type="line"/>
			<point x="548" y="283" type="line"/>
			<point x="568" y="375" type="line"/>
			<point x="116" y="375" type="line"/>
		</contour>
		<contour>
			<point x="196" y="0" type="line"/>
			<point x="329" y="0" type="line"/>
			<point x="394" y="306" type="line"/>
			<point x="708" y="715" type="line"/>
			<point x="561" y="715" type="line"/>
			<point x="337" y="403" type="line"/>
			<point x="360" y="403" type="line"/>
			<point x="265" y="715" type="line"/>
			<point x="120" y="715" type="line"/>
			<point x="261" y="307" type="line"/>
		</contour>
	</outline>
</glyph>
<glyph name="brokenbar" format="2">
	<unicode hex="00A6"/>
	<advance width="270"/>
	<outline>
		<contour>
			<point x="101" y="389" type="line"/>
			<point x="227" y="389" type="line"/>
			<point x="300" y="736" type="line"/>
			<point x="174" y="736" type="line"/>
		</contour>
		<contour>
			<point x="-8" y="-129" type="line"/>
			<point x="117" y="-129" type="line"/>
			<point x="190" y="217" type="line"/>
			<point x="65" y="217" type="line"/>
		</contour>
	</outline>
</glyph>
<glyph name="logicalnot" format="2">
	<unicode hex="00AC"/>
	<advance width="632"/>
	<outline>
		<contour>
			<point x="118" y="305" type="line"/>
			<point x="431" y="305" type="line"/>
			<point x="398" y="154" type="line"/>
			<point x="504" y="154" type="line"/>
			<point x="559" y="411" type="line"/>
			<point x="141" y="411" type="line"/>
		</contour>
	</outline>
</glyph>
<glyph name="degree" format="2">
	<unicode hex="00B0"/>
	<advance width="468"/>
	<outline>
		<contour>
			<point x="272" y="370" type="curve" smooth="yes"/>
			<point x="390" y="370"/>
			<point x="482" y="459"/>
			<point x="482" y="573" type="curve" smooth="yes"/>
			<point x="482" y="664"/>
			<point x="415" y="731"/>
			<point x="324" y="731" type="curve" smooth="yes"/>
			<point x="206" y="731"/>
			<point x="114" y="642"/>
			<point x="114" y="528" type="curve" smooth="yes"/>
			<point x="114" y="437"/>
			<point x="181" y="370"/>
		</contour>
		<contour>
			<point x="283" y="462" type="curve" smooth="yes"/>
			<point x="243" y="462"/>
			<point x="216" y="493"/>
			<point x="216" y="537" type="curve" smooth="yes"/>
			<point x="216" y="594"/>
			<point x="258" y="640"/>
			<point x="312" y="640" type="curve" smooth="yes"/>
			<point x="353" y="640"/>
			<point x="380" y="608"/>
			<point x="380" y="564" type="curve" smooth="yes"/>
			<point x="380" y="507"/>
			<point x="337" y="462"/>
		</contour>
	</outline>
</glyph>
<glyph name="micro" format="2">
	<unicode hex="00B5"/>
	<advance width="632"/>
	<outline>
		<contour>
			<point x="-6" y="-194" type="line"/>
			<point x="126" y="-194" type="line"/>
			<point x="180" y="61" type="line"/>
			<point x="136" y="40" type="line"/>
			<point x="145" y="5"/>
			<point x="178" y="-16"/>
			<point x="226" y="-16" type="curve" smooth="yes"/>
			<point x="304" y="-16"/>
			<point x="386" y="56"/>
			<point x="417" y="183" type="curve"/>
			<point x="390" y="157" type="line"/>
			<point x="357" y="0" type="line"/>
			<point x="488" y="0" type="line"/>
			<point x="594" y="503" type="line"/>
			<point x="462" y="503" type="line"/>
			<point x="421" y="309" type="line" smooth="yes"/>
			<point x="391" y="167"/>
			<point x="339" y="94"/>
			<point x="266" y="94" type="curve" smooth="yes"/>
			<point x="229" y="94"/>
			<point x="207" y="120"/>
			<point x="207" y="162" type="curve" smooth="yes"/>
			<point x="207" y="176"/>
			<point x="210" y="200"/>
			<point x="216" y="230" type="curve" smooth="yes"/>
			<point x="274" y="503" type="line"/>
			<point x="142" y="503" type="line"/>
		</contour>
	</outline>
</glyph>
<glyph name="paragraph" format="2">
	<unicode hex="00B6"/>
	<advance width="602"/>
	<outline>
		<contour>
			<point x="129" y="-130" type="line"/>
			<point x="251" y="-130" type="line"/>
			<point x="406" y="602" type="line"/>
			<point x="494" y="602" type="line"/>
			<point x="340" y="-130" type="line"/>
			<point x="462" y="-130" type="line"/>
			<point x="641" y="715" type="line"/>
			<point x="364" y="715" type="line" smooth="yes"/>
			<point x="193" y="715"/>
			<point x="66" y="588"/>
			<point x="66" y="434" type="curve" smooth="yes"/>
			<point x="66" y="344"/>
			<point x="121" y="279"/>
			<point x="212" y="265" type="curve"/>
		</contour>
	</outline>
</glyph>
<glyph name="ordmasculine" format="2">
	<unicode hex="00BA"/>
	<advance width="473"/>
	<outline>
		<contour>
			<point x="264" y="294" type="curve" smooth="yes"/>
			<point x="402" y="294"/>
			<point x="499" y="411"/>
			<point x="499" y="539" type="curve" smooth="yes"/>
			<point x="499" y="655"/>
			<point x="418" y="715"/>
			<point x="316" y="715" type="curve" smooth="yes"/>
			<point x="178" y="715"/>
			<point x="81" y="598"/>
			<point x="81" y="471" type="curve" smooth="yes"/>
			<point x="81" y="354"/>
			<point x="162" y="294"/>
		</contour>
		<contour>
			<point x="270" y="390" type="curve" smooth="yes"/>
			<point x="222" y="390"/>
			<point x="204" y="436"/>
			<point x="204" y="477" type="curve" smooth="yes"/>
			<point x="204" y="542"/>
			<point x="243" y="619"/>
			<point x="310" y="619" type="curve" smooth="yes"/>
			<point x="358" y="619"/>
			<point x="376" y="573"/>
			<point x="376" y="532" type="curve" smooth="yes"/>
			<point x="376" y="467"/>
			<point x="337" y="390"/>
		</contour>
	</outline>
</glyph>
<glyph name="questiondown" format="2">
	<unicode hex="00BF"/>
	<advance width="579"/>
	<outline>
		<contour>
			<point x="404" y="-23" type="line"/>
			<point x="349" y="-94"/>
			<point x="288" y="-127"/>
			<point x="233" y="-127" type="curve" smooth="yes"/>
			<point x="174" y="-127"/>
			<point x="146" y="-90"/>
			<point x="146" y="-50" type="curve" smooth="yes"/>
			<point x="146" y="-2"/>
			<point x="179" y="32"/>
			<point x="230" y="59" type="curve" smooth="yes"/>
			<point x="331" y="114"/>
			<point x="363" y="160"/>
			<point x="373" y="266" type="curve"/>
			<point x="277" y="266" type="line"/>
			<point x="266" y="208"/>
			<point x="244" y="181"/>
			<point x="177" y="145" type="curve" smooth="yes"/>
			<point x="65" y="86"/>
			<point x="12" y="22"/>
			<point x="12" y="-70" type="curve" smooth="yes"/>
			<point x="12" y="-156"/>
			<point x="87" y="-240"/>
			<point x="217" y="-240" type="curve" smooth="yes"/>
			<point x="315" y="-240"/>
			<point x="403" y="-199"/>
			<point x="480" y="-110" type="curve"/>
		</contour>
		<contour>
			<point x="267" y="407" type="curve" smooth="yes"/>
			<point x="267" y="367"/>
			<point x="297" y="337"/>
			<point x="337" y="337" type="curve" smooth="yes"/>
			<point x="394" y="337"/>
			<point x="436" y="378"/>
			<point x="436" y="435" type="curve" smooth="yes"/>
			<point x="436" y="474"/>
			<point x="405" y="503"/>
			<point x="364" y="503" type="curve" smooth="yes"/>
			<point x="308" y="503"/>
			<point x="267" y="464"/>
		</contour>
	</outline>
</glyph>
<glyph name="AE" format="2">
	<unicode hex="00C6"/>
	<advance width="1023"/>
	<outline>
		<contour>
			<point x="-27" y="0" type="line"/>
			<point x="128" y="0" type="line"/>
			<point x="683" y="715" type="line"/>
			<point x="545" y="715" type="line"/>
		</contour>
		<contour>
			<point x="211" y="156" type="line"/>
			<point x="554" y="156" type="line"/>
			<point x="579" y="271" type="line"/>
			<point x="236" y="271" type="line"/>
		</contour>
		<contour>
			<point x="459" y="0" type="line"/>
			<point x="939" y="0" type="line"/>
			<point x="964" y="114" type="line"/>
			<point x="618" y="114" type="line"/>
			<point x="721" y="601" type="line"/>
			<point x="1052" y="601" type="line"/>
			<point x="1076" y="715" type="line"/>
			<point x="610" y="715" type="line"/>
		</contour>
		<contour>
			<point x="647" y="305" type="line"/>
			<point x="972" y="305" type="line"/>
			<point x="996" y="419" type="line"/>
			<point x="672" y="419" type="line"/>
		</contour>
	</outline>
</glyph>
<glyph name="Eth" format="2">
	<unicode hex="00D0"/>
	<advance width="747"/>
	<outline>
		<contour>
			<point x="45" y="305" type="line"/>
			<point x="375" y="305" type="line"/>
			<point x="400" y="419" type="line"/>
			<point x="69" y="419" type="line"/>
		</contour>
		<contour>
			<point x="35" y="0" type="line"/>
			<point x="283" y="0" type="line" smooth="yes"/>
			<point x="537" y="0"/>
			<point x="724" y="169"/>
			<point x="724" y="424" type="curve" smooth="yes"/>
			<point x="724" y="606"/>
			<point x="604" y="715"/>
			<point x="420" y="715" type="curve" smooth="yes"/>
			<point x="186" y="715" type="line"/>
		</contour>
		<contour>
			<point x="194" y="115" type="line"/>
			<point x="298" y="600" type="line"/>
			<point x="402" y="600" type="line" smooth="yes"/>
			<point x="521" y="600"/>
			<point x="582" y="523"/>
			<point x="582" y="413" type="curve" smooth="yes"/>
			<point x="582" y="239"/>
			<point x="463" y="115"/>
			<point x="297" y="115" type="curve" smooth="yes"/>
		</contour>
	</outline>
</glyph>
<glyph name="Oslash" format="2">
	<unicode hex="00D8"/>
	<advance width="817"/>
	<outline>
		<contour>
			<point x="62" y="-31" type="line"/>
			<point x="866" y="663" type="line"/>
			<point x="800" y="747" type="line"/>
			<point x="-4" y="52" type="line"/>
		</contour>
		<contour>
			<point x="382" y="-16" type="curve" smooth="yes"/>
			<point x="627" y="-16"/>
			<point x="793" y="202"/>
			<point x="793" y="426" type="curve" smooth="yes"/>
			<point x="793" y="608"/>
			<point x="674" y="731"/>
			<point x="481" y="731" type="curve" smooth="yes"/>
			<point x="240" y="731"/>
			<point x="72" y="513"/>
			<point x="72" y="291" type="curve" smooth="yes"/>
			<point x="72" y="106"/>
			<point x="192" y="-16"/>
		</contour>
		<contour>
			<point x="391" y="104" type="curve" smooth="yes"/>
			<point x="275" y="104"/>
			<point x="212" y="179"/>
			<point x="212" y="300" type="curve" smooth="yes"/>
			<point x="212" y="456"/>
			<point x="321" y="611"/>
			<point x="475" y="611" type="curve" smooth="yes"/>
			<point x="588" y="611"/>
			<point x="653" y="536"/>
			<point x="653" y="414" type="curve" smooth="yes"/>
			<point x="653" y="259"/>
			<point x="544" y="104"/>
		</contour>
	</outline>
</glyph>
<glyph name="Thorn" format="2">
	<unicode hex="00DE"/>
	<advance width="644"/>
	<outline>
		<contour>
			<point x="35" y="0" type="line"/>
			<point x="170" y="0" type="line"/>
			<point x="322" y="715" type="line"/>
			<point x="187" y="715" type="line"/>
		</contour>
		<contour>
			<point x="190" y="138" type="line"/>
			<point x="325" y="138" type="line" smooth="yes"/>
			<point x="508" y="138"/>
			<point x="620" y="243"/>
			<point x="620" y="385" type="curve" smooth="yes"/>
			<point x="620" y="496"/>
			<point x="548" y="575"/>
			<point x="406" y="575" type="curve" smooth="yes"/>
			<point x="282" y="575" type="line"/>
			<point x="258" y="461" type="line"/>
			<point x="386" y="461" type="line" smooth="yes"/>
			<point x="451" y="461"/>
			<point x="484" y="427"/>
			<point x="484" y="377" type="curve" smooth="yes"/>
			<point x="484" y="304"/>
			<point x="435" y="252"/>
			<point x="343" y="252" type="curve" smooth="yes"/>
			<point x="214" y="252" type="line"/>
		</contour>
	</outline>
</glyph>
<glyph name="ae" format="2">
	<unicode hex="00E6"/>
	<advance width="903"/>
	<outline>
		<contour>
			<point x="146" y="353" type="line"/>
			<point x="183" y="394"/>
			<point x="238" y="418"/>
			<point x="294" y="418" type="curve" smooth="yes"/>
			<point x="369" y="418"/>
			<point x="398" y="374"/>
			<point x="381" y="289" type="curve" smooth="yes"/>
			<point x="375" y="264" type="line"/>
			<point x="475" y="257" type="line"/>
			<point x="479" y="279" type="line" smooth="yes"/>
			<point x="507" y="429"/>
			<point x="442" y="519"/>
			<point x="303" y="519" type="curve" smooth="yes"/>
			<point x="219" y="519"/>
			<point x="135" y="487"/>
			<point x="83" y="435" type="curve"/>
		</contour>
		<contour>
			<point x="278" y="303" type="line"/>
			<point x="113" y="303"/>
			<point x="13" y="239"/>
			<point x="13" y="134" type="curve" smooth="yes"/>
			<point x="13" y="45"/>
			<point x="82" y="-16"/>
			<point x="182" y="-16" type="curve" smooth="yes"/>
			<point x="321" y="-16"/>
			<point x="422" y="73"/>
			<point x="452" y="224" type="curve"/>
			<point x="375" y="242" type="line"/>
			<point x="353" y="144"/>
			<point x="292" y="81"/>
			<point x="221" y="81" type="curve" smooth="yes"/>
			<point x="178" y="81"/>
			<point x="147" y="107"/>
			<point x="147" y="143" type="curve" smooth="yes"/>
			<point x="147" y="190"/>
			<point x="195" y="219"/>
			<point x="274" y="219" type="curve" smooth="yes"/>
			<point x="413" y="219" type="line"/>
			<point x="431" y="303" type="line"/>
		</contour>
		<contour>
			<point x="770" y="159" type="line"/>
			<point x="732" y="113"/>
			<point x="683" y="88"/>
			<point x="631" y="88" type="curve" smooth="yes"/>
			<point x="555" y="88"/>
			<point x="509" y="134"/>
			<point x="509" y="212" type="curve" smooth="yes"/>
			<point x="509" y="331"/>
			<point x="575" y="416"/>
			<point x="668" y="416" type="curve" smooth="yes"/>
			<point x="711" y="416"/>
			<point x="741" y="391"/>
			<point x="741" y="357" type="curve" smooth="yes"/>
			<point x="741" y="320"/>
			<point x="709" y="299"/>
			<point x="652" y="299" type="curve" smooth="yes"/>
			<point x="459" y="299" type="line"/>
			<point x="459" y="214" type="line"/>
			<point x="664" y="214" type="line" smooth="yes"/>
			<point x="795" y="214"/>
			<point x="871" y="267"/>
			<point x="871" y="360" type="curve" smooth="yes"/>
			<point x="871" y="453"/>
			<point x="789" y="519"/>
			<point x="674" y="519" type="curve" smooth="yes"/>
			<point x="517" y="519"/>
			<point x="397" y="386"/>
			<point x="397" y="212" type="curve" smooth="yes"/>
			<point x="397" y="73"/>
			<point x="485" y="-16"/>
			<point x="624" y="-16" type="curve" smooth="yes"/>
			<point x="705" y="-16"/>
			<point x="775" y="14"/>
			<point x="833" y="74" type="curve"/>
		</contour>
	</outline>
	<guideline y="303"/>
</glyph>
<glyph name="eth" format="2">
	<unicode hex="00F0"/>
	<advance width="614"/>
	<outline>
		<contour>
			<point x="458" y="237" type="line"/>
			<point x="466" y="276"/>
			<point x="470" y="308"/>
			<point x="470" y="335" type="curve" smooth="yes"/>
			<point x="470" y="431"/>
			<point x="405" y="489"/>
			<point x="306" y="489" type="curve" smooth="yes"/>
			<point x="158" y="489"/>
			<point x="36" y="357"/>
			<point x="36" y="190" type="curve" smooth="yes"/>
			<point x="36" y="65"/>
			<point x="119" y="-16"/>
			<point x="246" y="-16" type="curve" smooth="yes"/>
			<point x="442" y="-16"/>
			<point x="581" y="155"/>
			<point x="581" y="396" type="curve" smooth="yes"/>
			<point x="581" y="560"/>
			<point x="506" y="692"/>
			<point x="366" y="774" type="curve"/>
			<point x="250" y="731" type="line"/>
			<point x="392" y="635"/>
			<point x="457" y="521"/>
			<point x="457" y="372" type="curve" smooth="yes"/>
			<point x="457" y="329"/>
			<point x="452" y="284"/>
			<point x="442" y="237" type="curve"/>
		</contour>
		<contour>
			<point x="270" y="94" type="curve" smooth="yes"/>
			<point x="208" y="94"/>
			<point x="172" y="135"/>
			<point x="172" y="202" type="curve" smooth="yes"/>
			<point x="172" y="305"/>
			<point x="238" y="382"/>
			<point x="323" y="382" type="curve" smooth="yes"/>
			<point x="387" y="382"/>
			<point x="426" y="341"/>
			<point x="426" y="277" type="curve" smooth="yes"/>
			<point x="426" y="178"/>
			<point x="355" y="94"/>
		</contour>
		<contour>
			<point x="274" y="522" type="line"/>
			<point x="611" y="656" type="line"/>
			<point x="580" y="740" type="line"/>
			<point x="240" y="606" type="line"/>
		</contour>
	</outline>
</glyph>
<glyph name="divide" format="2">
	<unicode hex="00F7"/>
	<advance width="632"/>
	<outline>
		<contour>
			<point x="107" y="304" type="line"/>
			<point x="548" y="304" type="line"/>
			<point x="571" y="411" type="line"/>
			<point x="130" y="411" type="line"/>
		</contour>
		<contour>
			<point x="299" y="526" type="curve" smooth="yes"/>
			<point x="299" y="489"/>
			<point x="325" y="465"/>
			<point x="362" y="465" type="curve" smooth="yes"/>
			<point x="414" y="465"/>
			<point x="456" y="510"/>
			<point x="456" y="554" type="curve" smooth="yes"/>
			<point x="456" y="591"/>
			<point x="431" y="615"/>
			<point x="394" y="615" type="curve" smooth="yes"/>
			<point x="342" y="615"/>
			<point x="299" y="571"/>
		</contour>
		<contour>
			<point x="221" y="161" type="curve"/>
			<point x="221" y="124"/>
			<point x="247" y="100"/>
			<point x="283" y="100" type="curve" smooth="yes"/>
			<point x="336" y="100"/>
			<point x="378" y="144"/>
			<point x="378" y="189" type="curve" smooth="yes"/>
			<point x="378" y="226"/>
			<point x="353" y="250"/>
			<point x="316" y="250" type="curve" smooth="yes"/>
			<point x="264" y="250"/>
			<point x="221" y="206"/>
		</contour>
	</outline>
</glyph>
<glyph name="oslash" format="2">
	<unicode hex="00F8"/>
	<advance width="608"/>
	<outline>
		<contour>
			<point x="32" y="-32" type="line"/>
			<point x="625" y="471" type="line"/>
			<point x="575" y="534" type="line"/>
			<point x="-17" y="32" type="line"/>
		</contour>
		<contour>
			<point x="42" y="212" type="curve" smooth="yes"/>
			<point x="42" y="71"/>
			<point x="133" y="-16"/>
			<point x="281" y="-16" type="curve" smooth="yes"/>
			<point x="438" y="-16"/>
			<point x="567" y="122"/>
			<point x="567" y="291" type="curve" smooth="yes"/>
			<point x="567" y="432"/>
			<point x="476" y="519"/>
			<point x="329" y="519" type="curve" smooth="yes"/>
			<point x="172" y="519"/>
			<point x="42" y="381"/>
		</contour>
		<contour>
			<point x="281" y="94" type="curve" smooth="yes"/>
			<point x="214" y="94"/>
			<point x="177" y="140"/>
			<point x="177" y="212" type="curve" smooth="yes"/>
			<point x="177" y="321"/>
			<point x="245" y="409"/>
			<point x="329" y="409" type="curve" smooth="yes"/>
			<point x="396" y="409"/>
			<point x="432" y="363"/>
			<point x="432" y="291" type="curve" smooth="yes"/>
			<point x="432" y="183"/>
			<point x="365" y="94"/>
		</contour>
	</outline>
</glyph>
<glyph name="dcroat" format="2">
	<unicode hex="0111"/>
	<advance width="641"/>
	<outline>
		<contour>
			<point x="352" y="552" type="line"/>
			<point x="697" y="552" type="line"/>
			<point x="717" y="647" type="line"/>
			<point x="373" y="647" type="line"/>
		</contour>
		<contour>
			<point x="377" y="0" type="line"/>
			<point x="506" y="0" type="line"/>
			<point x="658" y="720" type="line"/>
			<point x="529" y="720" type="line"/>
			<point x="446" y="330" type="line"/>
			<point x="478" y="336" type="line"/>
			<point x="482" y="438"/>
			<point x="419" y="501"/>
			<point x="308" y="501" type="curve" smooth="yes"/>
			<point x="158" y="501"/>
			<point x="36" y="365"/>
			<point x="36" y="198" type="curve" smooth="yes"/>
			<point x="36" y="67"/>
			<point x="108" y="-16"/>
			<point x="219" y="-16" type="curve" smooth="yes"/>
			<point x="333" y="-16"/>
			<point x="415" y="64"/>
			<point x="450" y="211" type="curve"/>
			<point x="426" y="235" type="line"/>
			<point x="397" y="146"/>
			<point x="339" y="89"/>
			<point x="274" y="89" type="curve" smooth="yes"/>
			<point x="212" y="89"/>
			<point x="173" y="132"/>
			<point x="173" y="202" type="curve" smooth="yes"/>
			<point x="173" y="309"/>
			<point x="242" y="395"/>
			<point x="327" y="395" type="curve" smooth="yes"/>
			<point x="391" y="395"/>
			<point x="428" y="352"/>
			<point x="428" y="278" type="curve" smooth="yes"/>
			<point x="428" y="256"/>
			<point x="426" y="238"/>
			<point x="422" y="216" type="curve" smooth="yes"/>
		</contour>
	</outline>
</glyph>
<glyph name="Hbar" format="2">
	<unicode hex="0126"/>
	<advance width="742"/>
	<outline>
		<contour>
			<point x="87" y="517" type="line"/>
			<point x="767" y="517" type="line"/>
			<point x="790" y="626" type="line"/>
			<point x="110" y="626" type="line"/>
		</contour>
		<contour>
			<point x="468" y="0" type="line"/>
			<point x="603" y="0" type="line"/>
			<point x="754" y="715" type="line"/>
			<point x="619" y="715" type="line"/>
		</contour>
		<contour>
			<point x="35" y="0" type="line"/>
			<point x="170" y="0" type="line"/>
			<point x="321" y="715" type="line"/>
			<point x="186" y="715" type="line"/>
		</contour>
		<contour>
			<point x="226" y="310" type="line"/>
			<point x="543" y="310" type="line"/>
			<point x="567" y="425" type="line"/>
			<point x="250" y="425" type="line"/>
		</contour>
	</outline>
</glyph>
<glyph name="hbar" format="2">
	<unicode hex="0127"/>
	<advance width="600"/>
	<outline>
		<contour>
			<point x="75" y="552" type="line"/>
			<point x="419" y="552" type="line"/>
			<point x="439" y="647" type="line"/>
			<point x="95" y="647" type="line"/>
		</contour>
		<contour>
			<point x="32" y="0" type="line"/>
			<point x="164" y="0" type="line"/>
			<point x="203" y="184" type="line" smooth="yes"/>
			<point x="231" y="319"/>
			<point x="285" y="391"/>
			<point x="356" y="391" type="curve" smooth="yes"/>
			<point x="397" y="391"/>
			<point x="420" y="365"/>
			<point x="420" y="320" type="curve" smooth="yes"/>
			<point x="420" y="306"/>
			<point x="417" y="289"/>
			<point x="413" y="268" type="curve" smooth="yes"/>
			<point x="357" y="0" type="line"/>
			<point x="489" y="0" type="line"/>
			<point x="547" y="274" type="line" smooth="yes"/>
			<point x="553" y="304"/>
			<point x="555" y="328"/>
			<point x="555" y="349" type="curve" smooth="yes"/>
			<point x="555" y="443"/>
			<point x="497" y="501"/>
			<point x="413" y="501" type="curve" smooth="yes"/>
			<point x="321" y="501"/>
			<point x="236" y="423"/>
			<point x="205" y="302" type="curve"/>
			<point x="233" y="329" type="line"/>
			<point x="317" y="720" type="line"/>
			<point x="185" y="720" type="line"/>
		</contour>
	</outline>
</glyph>
<glyph name="dotlessi" format="2">
	<unicode hex="0131"/>
	<advance width="262"/>
	<outline>
		<contour>
			<point x="14" y="0" type="line"/>
			<point x="146" y="0" type="line"/>
			<point x="253" y="503" type="line"/>
			<point x="121" y="503" type="line"/>
		</contour>
	</outline>
	<anchor name="top.LC" x="194" y="544"/>
</glyph>
<glyph name="IJ" format="2">
	<unicode hex="0132"/>
	<advance width="692"/>
	<outline>
		<contour>
			<point x="97" y="350" type="line"/>
			<point x="232" y="350" type="line"/>
			<point x="308" y="715" type="line"/>
			<point x="173" y="715" type="line"/>
		</contour>
		<contour>
			<point x="78" y="246" type="line"/>
			<point x="75" y="227"/>
			<point x="74" y="209"/>
			<point x="74" y="193" type="curve" smooth="yes"/>
			<point x="74" y="62"/>
			<point x="178" y="-16"/>
			<point x="299" y="-16" type="curve" smooth="yes"/>
			<point x="484" y="-16"/>
			<point x="578" y="81"/>
			<point x="619" y="272" type="curve" smooth="yes"/>
			<point x="713" y="715" type="line"/>
			<point x="578" y="715" type="line"/>
			<point x="486" y="280" type="line" smooth="yes"/>
			<point x="462" y="165"/>
			<point x="409" y="104"/>
			<point x="320" y="104" type="curve" smooth="yes"/>
			<point x="240" y="104"/>
			<point x="207" y="153"/>
			<point x="207" y="224" type="curve" smooth="yes"/>
			<point x="207" y="236"/>
			<point x="208" y="249"/>
			<point x="210" y="261" type="curve"/>
		</contour>
	</outline>
	<anchor name="top.UC_1" x="240" y="750"/>
	<anchor name="top.UC_2" x="645" y="750"/>
</glyph>
<glyph name="Lslash" format="2">
	<unicode hex="0141"/>
	<advance width="585"/>
	<outline>
		<contour>
			<point x="43" y="189" type="line"/>
			<point x="436" y="415" type="line"/>
			<point x="401" y="511" type="line"/>
			<point x="8" y="284" type="line"/>
		</contour>
		<contour>
			<point x="50" y="0" type="line"/>
			<point x="500" y="0" type="line"/>
			<point x="524" y="117" type="line"/>
			<point x="210" y="117" type="line"/>
			<point x="337" y="715" type="line"/>
			<point x="202" y="715" type="line"/>
		</contour>
	</outline>
	<guideline x="185" y="0" angle="102"/>
</glyph>
<glyph name="lslash" format="2">
	<unicode hex="0142"/>
	<advance width="346"/>
	<outline>
		<contour>
			<point x="43" y="231" type="line"/>
			<point x="382" y="423" type="line"/>
			<point x="353" y="511" type="line"/>
			<point x="15" y="320" type="line"/>
		</contour>
		<contour>
			<point x="83" y="168" type="line"/>
			<point x="77" y="141"/>
			<point x="74" y="120"/>
			<point x="74" y="105" type="curve" smooth="yes"/>
			<point x="74" y="32"/>
			<point x="111" y="0"/>
			<point x="196" y="0" type="curve" smooth="yes"/>
			<point x="269" y="0" type="line"/>
			<point x="292" y="109" type="line"/>
			<point x="244" y="109" type="line" smooth="yes"/>
			<point x="221" y="109"/>
			<point x="211" y="118"/>
			<point x="211" y="139" type="curve" smooth="yes"/>
			<point x="211" y="149"/>
			<point x="212" y="157"/>
			<point x="215" y="171" type="curve" smooth="yes"/>
			<point x="332" y="720" type="line"/>
			<point x="200" y="720" type="line"/>
		</contour>
	</outline>
</glyph>
<glyph name="Eng" format="2">
	<unicode hex="014A"/>
	<advance width="756"/>
	<outline>
		<contour>
			<point x="160" y="-144" type="line"/>
			<point x="192" y="-182"/>
			<point x="255" y="-204"/>
			<point x="325" y="-204" type="curve" smooth="yes"/>
			<point x="496" y="-204"/>
			<point x="592" y="-111"/>
			<point x="633" y="82" type="curve" smooth="yes"/>
			<point x="766" y="715" type="line"/>
			<point x="634" y="715" type="line"/>
			<point x="501" y="82" type="line" smooth="yes"/>
			<point x="477" y="-32"/>
			<point x="429" y="-84"/>
			<point x="343" y="-84" type="curve" smooth="yes"/>
			<point x="298" y="-84"/>
			<point x="267" y="-71"/>
			<point x="244" y="-46" type="curve"/>
		</contour>
		<contour>
			<point x="35" y="0" type="line"/>
			<point x="167" y="0" type="line"/>
			<point x="291" y="586" type="line"/>
			<point x="245" y="586" type="line"/>
			<point x="478" y="-11" type="line"/>
			<point x="558" y="127" type="line"/>
			<point x="327" y="715" type="line"/>
			<point x="186" y="715" type="line"/>
		</contour>
	</outline>
</glyph>
<glyph name="eng" format="2">
	<unicode hex="014B"/>
	<advance width="590"/>
	<outline>
		<contour>
			<point x="18" y="0" type="line"/>
			<point x="149" y="0" type="line"/>
			<point x="193" y="201" type="line" smooth="yes"/>
			<point x="221" y="337"/>
			<point x="274" y="409"/>
			<point x="346" y="409" type="curve" smooth="yes"/>
			<point x="387" y="409"/>
			<point x="410" y="384"/>
			<point x="410" y="340" type="curve" smooth="yes"/>
			<point x="410" y="325"/>
			<point x="406" y="301"/>
			<point x="400" y="270" type="curve" smooth="yes"/>
			<point x="338" y="-31" type="line" smooth="yes"/>
			<point x="329" y="-72"/>
			<point x="313" y="-86"/>
			<point x="277" y="-86" type="curve" smooth="yes"/>
			<point x="242" y="-86" type="line"/>
			<point x="219" y="-194" type="line"/>
			<point x="302" y="-194" type="line" smooth="yes"/>
			<point x="391" y="-194"/>
			<point x="444" y="-150"/>
			<point x="464" y="-54" type="curve" smooth="yes"/>
			<point x="533" y="273" type="line" smooth="yes"/>
			<point x="542" y="313"/>
			<point x="545" y="340"/>
			<point x="545" y="365" type="curve" smooth="yes"/>
			<point x="545" y="457"/>
			<point x="490" y="519"/>
			<point x="408" y="519" type="curve" smooth="yes"/>
			<point x="329" y="519"/>
			<point x="262" y="471"/>
			<point x="220" y="387" type="curve"/>
			<point x="230" y="385" type="line"/>
			<point x="255" y="503" type="line"/>
			<point x="124" y="503" type="line"/>
		</contour>
	</outline>
</glyph>
<glyph name="OE" format="2">
	<unicode hex="0152"/>
	<advance width="1130"/>
	<outline>
		<contour>
			<point x="351" y="-16" type="curve" smooth="yes"/>
			<point x="541" y="-16"/>
			<point x="702" y="150"/>
			<point x="744" y="358" type="curve" smooth="yes"/>
			<point x="753" y="398"/>
			<point x="755" y="429"/>
			<point x="755" y="456" type="curve" smooth="yes"/>
			<point x="755" y="623"/>
			<point x="652" y="731"/>
			<point x="482" y="731" type="curve" smooth="yes"/>
			<point x="248" y="731"/>
			<point x="67" y="521"/>
			<point x="67" y="279" type="curve" smooth="yes"/>
			<point x="67" y="103"/>
			<point x="180" y="-16"/>
		</contour>
		<contour>
			<point x="376" y="104" type="curve" smooth="yes"/>
			<point x="276" y="104"/>
			<point x="207" y="181"/>
			<point x="207" y="287" type="curve" smooth="yes"/>
			<point x="207" y="465"/>
			<point x="318" y="611"/>
			<point x="477" y="611" type="curve" smooth="yes"/>
			<point x="585" y="611"/>
			<point x="647" y="539"/>
			<point x="647" y="427" type="curve" smooth="yes"/>
			<point x="647" y="404"/>
			<point x="645" y="384"/>
			<point x="639" y="358" type="curve" smooth="yes"/>
			<point x="608" y="210"/>
			<point x="500" y="104"/>
		</contour>
		<contour>
			<point x="565" y="0" type="line"/>
			<point x="1046" y="0" type="line"/>
			<point x="1070" y="114" type="line"/>
			<point x="725" y="114" type="line"/>
			<point x="827" y="601" type="line"/>
			<point x="1158" y="601" type="line"/>
			<point x="1183" y="715" type="line"/>
			<point x="716" y="715" type="line"/>
		</contour>
		<contour>
			<point x="755" y="305" type="line"/>
			<point x="1078" y="305" type="line"/>
			<point x="1102" y="419" type="line"/>
			<point x="779" y="419" type="line"/>
		</contour>
	</outline>
</glyph>
<glyph name="oe" format="2">
	<unicode hex="0153"/>
	<advance width="947"/>
	<outline>
		<contour>
			<point x="503" y="214" type="line"/>
			<point x="708" y="214" type="line" smooth="yes"/>
			<point x="838" y="214"/>
			<point x="914" y="268"/>
			<point x="914" y="360" type="curve" smooth="yes"/>
			<point x="914" y="453"/>
			<point x="834" y="519"/>
			<point x="721" y="519" type="curve" smooth="yes"/>
			<point x="564" y="519"/>
			<point x="441" y="381"/>
			<point x="441" y="206" type="curve" smooth="yes"/>
			<point x="441" y="69"/>
			<point x="527" y="-16"/>
			<point x="668" y="-16" type="curve" smooth="yes"/>
			<point x="750" y="-16"/>
			<point x="820" y="14"/>
			<point x="878" y="74" type="curve"/>
			<point x="815" y="159" type="line"/>
			<point x="777" y="113"/>
			<point x="727" y="88"/>
			<point x="675" y="88" type="curve" smooth="yes"/>
			<point x="599" y="88"/>
			<point x="553" y="134"/>
			<point x="553" y="212" type="curve" smooth="yes"/>
			<point x="553" y="332"/>
			<point x="619" y="416"/>
			<point x="713" y="416" type="curve" smooth="yes"/>
			<point x="757" y="416"/>
			<point x="788" y="392"/>
			<point x="788" y="357" type="curve" smooth="yes"/>
			<point x="788" y="320"/>
			<point x="755" y="299"/>
			<point x="696" y="299" type="curve" smooth="yes"/>
			<point x="503" y="299" type="line"/>
		</contour>
		<contour>
			<point x="256" y="-16" type="curve" smooth="yes"/>
			<point x="410" y="-16"/>
			<point x="530" y="122"/>
			<point x="530" y="301" type="curve" smooth="yes"/>
			<point x="530" y="438"/>
			<point x="454" y="519"/>
			<point x="326" y="519" type="curve" smooth="yes"/>
			<point x="168" y="519"/>
			<point x="38" y="381"/>
			<point x="38" y="212" type="curve" smooth="yes"/>
			<point x="38" y="75"/>
			<point x="125" y="-16"/>
		</contour>
		<contour>
			<point x="277" y="94" type="curve" smooth="yes"/>
			<point x="214" y="94"/>
			<point x="175" y="140"/>
			<point x="175" y="212" type="curve" smooth="yes"/>
			<point x="175" y="320"/>
			<point x="243" y="409"/>
			<point x="325" y="409" type="curve" smooth="yes"/>
			<point x="387" y="409"/>
			<point x="427" y="363"/>
			<point x="427" y="291" type="curve" smooth="yes"/>
			<point x="427" y="183"/>
			<point x="359" y="94"/>
		</contour>
	</outline>
</glyph>
<glyph name="tbar" format="2">
	<unicode hex="0167"/>
	<advance width="393"/>
	<outline>
		<contour>
			<point x="63" y="397" type="line"/>
			<point x="380" y="397" type="line"/>
			<point x="402" y="503" type="line"/>
			<point x="86" y="503" type="line"/>
		</contour>
		<contour>
			<point x="25" y="220" type="line"/>
			<point x="342" y="220" type="line"/>
			<point x="363" y="316" type="line"/>
			<point x="45" y="316" type="line"/>
		</contour>
		<contour>
			<point x="94" y="174" type="line"/>
			<point x="88" y="148"/>
			<point x="86" y="119"/>
			<point x="86" y="110" type="curve" smooth="yes"/>
			<point x="86" y="34"/>
			<point x="129" y="0"/>
			<point x="227" y="0" type="curve" smooth="yes"/>
			<point x="305" y="0" type="line"/>
			<point x="328" y="109" type="line"/>
			<point x="268" y="109" type="line" smooth="yes"/>
			<point x="236" y="109"/>
			<point x="223" y="118"/>
			<point x="223" y="144" type="curve" smooth="yes"/>
			<point x="223" y="153"/>
			<point x="224" y="163"/>
			<point x="227" y="178" type="curve" smooth="yes"/>
			<point x="325" y="636" type="line"/>
			<point x="193" y="636" type="line"/>
		</contour>
	</outline>
</glyph>
<glyph name="dotlessj" format="2">
	<unicode hex="0237"/>
	<advance width="262"/>
	<outline>
		<contour>
			<point x="-106" y="-194" type="line"/>
			<point x="-28" y="-194" type="line" smooth="yes"/>
			<point x="64" y="-194"/>
			<point x="115" y="-151"/>
			<point x="136" y="-52" type="curve" smooth="yes"/>
			<point x="254" y="503" type="line"/>
			<point x="122" y="503" type="line"/>
			<point x="9" y="-30" type="line" smooth="yes"/>
			<point x="0" y="-70"/>
			<point x="-14" y="-86"/>
			<point x="-50" y="-86" type="curve" smooth="yes"/>
			<point x="-83" y="-86" type="line"/>
		</contour>
	</outline>
	<anchor name="top.LC" x="194" y="544"/>
</glyph>
<glyph name="gravecomb" format="2">
	<unicode hex="0300"/>
	<outline>
		<contour>
			<point x="-50" y="587" type="line"/>
			<point x="59" y="587" type="line"/>
			<point x="-13" y="761" type="line"/>
			<point x="-156" y="761" type="line"/>
		</contour>
	</outline>
	<anchor name="_top.LC" x="0" y="544"/>
</glyph>
<glyph name="circumflexcomb" format="2">
	<unicode hex="0302"/>
	<outline>
		<contour>
			<point x="-177" y="587" type="line"/>
			<point x="-61" y="587" type="line"/>
			<point x="95" y="745" type="line"/>
			<point x="-4" y="745" type="line"/>
			<point x="85" y="587" type="line"/>
			<point x="202" y="587" type="line"/>
			<point x="120" y="761" type="line"/>
			<point x="-21" y="761" type="line"/>
		</contour>
	</outline>
	<anchor name="_top.LC" x="0" y="544"/>
</glyph>
<glyph name="dieresiscomb" format="2">
	<unicode hex="0308"/>
	<outline>
		<contour>
			<point x="-96" y="592" type="curve" smooth="yes"/>
			<point x="-42" y="592"/>
			<point x="-3" y="632"/>
			<point x="-3" y="684" type="curve" smooth="yes"/>
			<point x="-3" y="718"/>
			<point x="-28" y="743"/>
			<point x="-65" y="743" type="curve" smooth="yes"/>
			<point x="-120" y="743"/>
			<point x="-159" y="703"/>
			<point x="-159" y="652" type="curve" smooth="yes"/>
			<point x="-159" y="617"/>
			<point x="-134" y="592"/>
		</contour>
		<contour>
			<point x="120" y="592" type="curve" smooth="yes"/>
			<point x="174" y="592"/>
			<point x="213" y="632"/>
			<point x="213" y="684" type="curve" smooth="yes"/>
			<point x="213" y="718"/>
			<point x="189" y="743"/>
			<point x="152" y="743" type="curve" smooth="yes"/>
			<point x="97" y="743"/>
			<point x="58" y="703"/>
			<point x="58" y="652" type="curve" smooth="yes"/>
			<point x="58" y="617"/>
			<point x="82" y="592"/>
		</contour>
	</outline>
	<anchor name="_top.LC" x="0" y="544"/>
</glyph>
<glyph name="ringcomb" format="2">
	<unicode hex="030A"/>
	<outline>
		<contour>
			<point x="53" y="801" type="curve" smooth="yes"/>
			<point x="-33" y="801"/>
			<point x="-94" y="739"/>
			<point x="-94" y="653" type="curve" smooth="yes"/>
			<point x="-94" y="600"/>
			<point x="-51" y="558"/>
			<point x="3" y="558" type="curve"/>
			<point x="90" y="558"/>
			<point x="151" y="620"/>
			<point x="151" y="706" type="curve" smooth="yes"/>
			<point x="151" y="759"/>
			<point x="107" y="801"/>
		</contour>
		<contour>
			<point x="39" y="732" type="curve" smooth="yes"/>
			<point x="62" y="732"/>
			<point x="77" y="715"/>
			<point x="77" y="690" type="curve" smooth="yes"/>
			<point x="77" y="653"/>
			<point x="52" y="627"/>
			<point x="18" y="627" type="curve"/>
			<point x="-6" y="627"/>
			<point x="-21" y="644"/>
			<point x="-21" y="669" type="curve" smooth="yes"/>
			<point x="-21" y="706"/>
			<point x="5" y="732"/>
		</contour>
	</outline>
	<anchor name="_top.LC" x="0" y="544"/>
</glyph>
<glyph name="hungarumlautcomb" format="2">
	<unicode hex="030B"/>
	<outline>
		<contour>
			<point x="-172" y="587" type="line"/>
			<point x="-54" y="587" type="line"/>
			<point x="125" y="761" type="line"/>
			<point x="-20" y="761" type="line"/>
		</contour>
		<contour>
			<point x="9" y="587" type="line"/>
			<point x="128" y="587" type="line"/>
			<point x="326" y="761" type="line"/>
			<point x="181" y="761" type="line"/>
		</contour>
	</outline>
	<anchor name="_top.LC" x="0" y="544"/>
</glyph>
<glyph name="caroncomb" format="2">
	<unicode hex="030C"/>
	<outline>
		<contour>
			<point x="-67" y="587" type="line"/>
			<point x="74" y="587" type="line"/>
			<point x="230" y="761" type="line"/>
			<point x="115" y="761" type="line"/>
			<point x="-42" y="603" type="line"/>
			<point x="57" y="603" type="line"/>
			<point x="-32" y="761" type="line"/>
			<point x="-149" y="761" type="line"/>
		</contour>
	</outline>
	<anchor name="_top.LC" x="0" y="544"/>
</glyph>
<glyph name="commaturnedabovecomb" format="2">
	<unicode hex="0312"/>
	<outline>
		<contour>
			<point x="29" y="672" type="line"/>
			<point x="34" y="701"/>
			<point x="64" y="747"/>
			<point x="104" y="785" type="curve"/>
			<point x="40" y="785" type="line"/>
			<point x="-29" y="720"/>
			<point x="-59" y="670"/>
			<point x="-59" y="625" type="curve" smooth="yes"/>
			<point x="-59" y="594"/>
			<point x="-36" y="571"/>
			<point x="-5" y="571" type="curve" smooth="yes"/>
			<point x="36" y="571"/>
			<point x="67" y="600"/>
			<point x="67" y="641" type="curve" smooth="yes"/>
			<point x="67" y="672"/>
			<point x="46" y="693"/>
			<point x="14" y="693" type="curve"/>
		</contour>
	</outline>
	<anchor name="_top.LC" x="0" y="544"/>
</glyph>
<glyph name="commaaboverightcomb" format="2">
	<unicode hex="0315"/>
	<outline>
		<contour>
			<point x="-19" y="491" type="line"/>
			<point x="48" y="552"/>
			<point x="91" y="624"/>
			<point x="91" y="673" type="curve" smooth="yes"/>
			<point x="91" y="709"/>
			<point x="71" y="731"/>
			<point x="35" y="731" type="curve" smooth="yes"/>
			<point x="-9" y="731"/>
			<point x="-46" y="695"/>
			<point x="-46" y="650" type="curve" smooth="yes"/>
			<point x="-46" y="619"/>
			<point x="-23" y="595"/>
			<point x="10" y="595" type="curve"/>
			<point x="-3" y="618" type="line"/>
			<point x="-8" y="584"/>
			<point x="-43" y="531"/>
			<point x="-85" y="491" type="curve"/>
		</contour>
	</outline>
	<anchor name="_top_right" x="0" y="540"/>
</glyph>
<glyph name="commabelowcomb" format="2">
	<unicode hex="0326"/>
	<outline>
		<contour>
			<point x="-49" y="-292" type="line"/>
			<point x="18" y="-229"/>
			<point x="49" y="-176"/>
			<point x="49" y="-133" type="curve" smooth="yes"/>
			<point x="49" y="-99"/>
			<point x="25" y="-78"/>
			<point x="-5" y="-78" type="curve" smooth="yes"/>
			<point x="-47" y="-78"/>
			<point x="-77" y="-107"/>
			<point x="-77" y="-149" type="curve" smooth="yes"/>
			<point x="-77" y="-180"/>
			<point x="-55" y="-200"/>
			<point x="-24" y="-200" type="curve"/>
			<point x="-39" y="-179" type="line"/>
			<point x="-43" y="-208"/>
			<point x="-74" y="-254"/>
			<point x="-113" y="-292" type="curve"/>
		</contour>
	</outline>
	<anchor name="_bottom.LC" x="0" y="-50"/>
</glyph>
<glyph name="cedillacomb" format="2">
	<unicode hex="0327"/>
	<outline>
		<contour>
			<point x="-148" y="-222" type="line"/>
			<point x="-121" y="-250"/>
			<point x="-89" y="-261"/>
			<point x="-44" y="-261" type="curve" smooth="yes"/>
			<point x="53" y="-261"/>
			<point x="113" y="-205"/>
			<point x="113" y="-129" type="curve" smooth="yes"/>
			<point x="113" y="-78"/>
			<point x="69" y="-43"/>
			<point x="-3" y="-43" type="curve"/>
			<point x="13" y="-86" type="line"/>
			<point x="60" y="10" type="line"/>
			<point x="-11" y="10" type="line"/>
			<point x="-72" y="-114" type="line"/>
			<point x="-59" y="-110"/>
			<point x="-44" y="-109"/>
			<point x="-26" y="-109" type="curve" smooth="yes"/>
			<point x="5" y="-109"/>
			<point x="23" y="-121"/>
			<point x="23" y="-142" type="curve" smooth="yes"/>
			<point x="23" y="-168"/>
			<point x="1" y="-185"/>
			<point x="-31" y="-185" type="curve" smooth="yes"/>
			<point x="-57" y="-185"/>
			<point x="-77" y="-177"/>
			<point x="-97" y="-160" type="curve"/>
		</contour>
	</outline>
	<anchor name="_bottom.LC" x="0" y="-50"/>
</glyph>
<glyph name="endash" format="2">
	<unicode hex="2013"/>
	<advance width="500"/>
	<outline>
		<contour>
			<point x="-11" y="221" type="line"/>
			<point x="489" y="221" type="line"/>
			<point x="511" y="334" type="line"/>
			<point x="11" y="334" type="line"/>
		</contour>
	</outline>
</glyph>
<glyph name="quoteright" format="2">
	<unicode hex="2019"/>
	<advance width="257"/>
	<outline>
		<contour>
			<point x="168" y="458" type="line"/>
			<point x="241" y="524"/>
			<point x="301" y="618"/>
			<point x="301" y="680" type="curve" smooth="yes"/>
			<point x="301" y="723"/>
			<point x="275" y="749"/>
			<point x="234" y="749" type="curve" smooth="yes"/>
			<point x="179" y="749"/>
			<point x="138" y="705"/>
			<point x="138" y="652" type="curve" smooth="yes"/>
			<point x="138" y="615"/>
			<point x="166" y="589"/>
			<point x="205" y="589" type="curve"/>
			<point x="202" y="633" type="line"/>
			<point x="198" y="588"/>
			<point x="160" y="529"/>
			<point x="94" y="458" type="curve"/>
		</contour>
	</outline>
</glyph>
<glyph name="daggerdbl" format="2">
	<unicode hex="2021"/>
	<advance width="450"/>
	<outline>
		<contour>
			<point x="80" y="-129" type="line"/>
			<point x="210" y="-129" type="line"/>
			<point x="393" y="736" type="line"/>
			<point x="263" y="736" type="line"/>
		</contour>
		<contour>
			<point x="61" y="397" type="line"/>
			<point x="451" y="397" type="line"/>
			<point x="474" y="503" type="line"/>
			<point x="84" y="503" type="line"/>
		</contour>
		<contour>
			<point x="-1" y="104" type="line"/>
			<point x="389" y="104" type="line"/>
			<point x="412" y="210" type="line"/>
			<point x="22" y="210" type="line"/>
		</contour>
	</outline>
</glyph>
<glyph name="bullet" format="2">
	<unicode hex="2022"/>
	<advance width="350"/>
	<outline>
		<contour>
			<point x="60" y="249" type="curve" smooth="yes"/>
			<point x="60" y="195"/>
			<point x="100" y="156"/>
			<point x="155" y="156" type="curve"/>
			<point x="233" y="156"/>
			<point x="301" y="215"/>
			<point x="301" y="299" type="curve"/>
			<point x="301" y="353"/>
			<point x="261" y="392"/>
			<point x="206" y="392" type="curve"/>
			<point x="128" y="392"/>
			<point x="60" y="333"/>
		</contour>
	</outline>
</glyph>
<glyph name="fraction" format="2">
	<unicode hex="2044"/>
	<advance width="182"/>
	<outline>
		<contour>
			<point x="-254" y="0" type="line"/>
			<point x="-119" y="0" type="line"/>
			<point x="481" y="715" type="line"/>
			<point x="347" y="715" type="line"/>
		</contour>
	</outline>
</glyph>
<glyph name="Euro" format="2">
	<unicode hex="20AC"/>
	<advance width="629"/>
	<outline>
		<contour>
			<point x="509" y="181" type="line"/>
			<point x="460" y="126"/>
			<point x="406" y="97"/>
			<point x="351" y="97" type="curve" smooth="yes"/>
			<point x="270" y="97"/>
			<point x="224" y="156"/>
			<point x="224" y="259" type="curve" smooth="yes"/>
			<point x="224" y="456"/>
			<point x="331" y="618"/>
			<point x="463" y="618" type="curve" smooth="yes"/>
			<point x="520" y="618"/>
			<point x="563" y="591"/>
			<point x="588" y="537" type="curve"/>
			<point x="683" y="617" type="line"/>
			<point x="645" y="690"/>
			<point x="573" y="731"/>
			<point x="484" y="731" type="curve" smooth="yes"/>
			<point x="267" y="731"/>
			<point x="91" y="511"/>
			<point x="91" y="241" type="curve" smooth="yes"/>
			<point x="91" y="80"/>
			<point x="178" y="-16"/>
			<point x="326" y="-16" type="curve" smooth="yes"/>
			<point x="423" y="-16"/>
			<point x="509" y="23"/>
			<point x="578" y="93" type="curve"/>
		</contour>
		<contour>
			<point x="20" y="235" type="line"/>
			<point x="416" y="235" type="line"/>
			<point x="453" y="327" type="line"/>
			<point x="39" y="327" type="line"/>
		</contour>
		<contour>
			<point x="52" y="390" type="line"/>
			<point x="475" y="390" type="line"/>
			<point x="512" y="482" type="line"/>
			<point x="72" y="482" type="line"/>
		</contour>
	</outline>
</glyph>
<glyph name="rupeeindian" format="2">
	<unicode hex="20B9"/>
	<advance width="631"/>
	<outline>
		<contour>
			<point x="98" y="455" type="line"/>
			<point x="594" y="455" type="line"/>
			<point x="631" y="548" type="line"/>
			<point x="118" y="548" type="line"/>
		</contour>
		<contour>
			<point x="134" y="622" type="line"/>
			<point x="339" y="622" type="line" smooth="yes"/>
			<point x="404" y="622"/>
			<point x="445" y="590"/>
			<point x="445" y="536" type="curve" smooth="yes"/>
			<point x="445" y="448"/>
			<point x="378" y="383"/>
			<point x="284" y="383" type="curve" smooth="yes"/>
			<point x="84" y="383" type="line"/>
			<point x="64" y="290" type="line"/>
			<point x="332" y="0" type="line"/>
			<point x="512" y="0" type="line"/>
			<point x="226" y="308" type="line"/>
			<point x="217" y="290" type="line"/>
			<point x="271" y="290" type="line" smooth="yes"/>
			<point x="436" y="290"/>
			<point x="564" y="403"/>
			<point x="564" y="548" type="curve" smooth="yes"/>
			<point x="564" y="585"/>
			<point x="550" y="617"/>
			<point x="522" y="641" type="curve"/>
			<point x="514" y="622" type="line"/>
			<point x="659" y="622" type="line"/>
			<point x="695" y="715" type="line"/>
			<point x="153" y="715" type="line"/>
		</contour>
	</outline>
</glyph>
<glyph name="liraturkish" format="2">
	<unicode hex="20BA"/>
	<advance width="628"/>
	<outline>
		<contour>
			<point x="61" y="0" type="line"/>
			<point x="237" y="0" type="line" smooth="yes"/>
			<point x="444" y="0"/>
			<point x="561" y="100"/>
			<point x="606" y="319" type="curve" smooth="yes"/>
			<point x="608" y="329" type="line"/>
			<point x="478" y="335" type="line"/>
			<point x="473" y="311" type="line" smooth="yes"/>
			<point x="445" y="178"/>
			<point x="371" y="110"/>
			<point x="256" y="110" type="curve" smooth="yes"/>
			<point x="219" y="110" type="line"/>
			<point x="347" y="715" type="line"/>
			<point x="212" y="715" type="line"/>
		</contour>
		<contour>
			<point x="22" y="199" type="line"/>
			<point x="419" y="362" type="line"/>
			<point x="439" y="458" type="line"/>
			<point x="41" y="295" type="line"/>
		</contour>
		<contour>
			<point x="55" y="360" type="line"/>
			<point x="453" y="523" type="line"/>
			<point x="474" y="619" type="line"/>
			<point x="76" y="456" type="line"/>
		</contour>
	</outline>
</glyph>
<glyph name="ruble" format="2">
	<unicode hex="20BD"/>
	<advance width="633"/>
	<outline>
		<contour>
			<point x="74" y="0" type="line"/>
			<point x="207" y="0" type="line"/>
			<point x="337" y="612" type="line"/>
			<point x="432" y="612" type="line" smooth="yes"/>
			<point x="489" y="612"/>
			<point x="521" y="581"/>
			<point x="521" y="527" type="curve" smooth="yes"/>
			<point x="521" y="450"/>
			<point x="464" y="393"/>
			<point x="385" y="393" type="curve" smooth="yes"/>
			<point x="68" y="393" type="line"/>
			<point x="46" y="290" type="line"/>
			<point x="361" y="290" type="line" smooth="yes"/>
			<point x="552" y="290"/>
			<point x="659" y="392"/>
			<point x="659" y="544" type="curve" smooth="yes"/>
			<point x="659" y="652"/>
			<point x="580" y="715"/>
			<point x="449" y="715" type="curve" smooth="yes"/>
			<point x="225" y="715" type="line"/>
		</contour>
		<contour>
			<point x="9" y="110" type="line"/>
			<point x="421" y="110" type="line"/>
			<point x="443" y="213" type="line"/>
			<point x="30" y="213" type="line"/>
		</contour>
	</outline>
</glyph>
<glyph name="trademark" format="2">
	<unicode hex="2122"/>
	<advance width="839"/>
	<outline>
		<contour>
			<point x="165" y="307" type="line"/>
			<point x="267" y="307" type="line"/>
			<point x="267" y="636" type="line"/>
			<point x="165" y="636" type="line"/>
		</contour>
		<contour>
			<point x="55" y="630" type="line"/>
			<point x="378" y="630" type="line"/>
			<point x="378" y="715" type="line"/>
			<point x="55" y="715" type="line"/>
		</contour>
		<contour>
			<point x="417" y="307" type="line"/>
			<point x="516" y="307" type="line"/>
			<point x="516" y="684" type="line"/>
			<point x="461" y="682" type="line"/>
			<point x="603" y="361" type="line"/>
			<point x="676" y="361" type="line"/>
			<point x="819" y="682" type="line"/>
			<point x="763" y="684" type="line"/>
			<point x="763" y="307" type="line"/>
			<point x="864" y="307" type="line"/>
			<point x="864" y="715" type="line"/>
			<point x="746" y="715" type="line"/>
			<point x="625" y="431" type="line"/>
			<point x="657" y="431" type="line"/>
			<point x="535" y="715" type="line"/>
			<point x="417" y="715" type="line"/>
		</contour>
	</outline>
</glyph>
<glyph name="rightTipDownArrow" format="2">
	<unicode hex="2B0E"/>
	<advance width="752"/>
	<outline>
		<contour>
			<point x="351" y="72" type="line"/>
			<point x="425" y="72" type="line"/>
			<point x="425" y="715" type="line"/>
			<point x="112" y="715" type="line"/>
			<point x="112" y="643" type="line"/>
			<point x="351" y="643" type="line"/>
		</contour>
		<contour>
			<point x="388" y="-16" type="line"/>
			<point x="664" y="240" type="line"/>
			<point x="664" y="341" type="line"/>
			<point x="388" y="84" type="line"/>
			<point x="112" y="341" type="line"/>
			<point x="112" y="240" type="line"/>
		</contour>
	</outline>
</glyph>
<glyph name="acutecomb.asc" format="2">
	<outline>
		<contour>
			<point x="-72" y="587" type="line"/>
			<point x="44" y="587" type="line"/>
			<point x="199" y="731" type="line"/>
			<point x="50" y="731" type="line"/>
		</contour>
	</outline>
	<anchor name="_top.LC" x="0" y="544"/>
</glyph>
<glyph name="acutecomb.cap" format="2">
	<outline>
		<contour>
			<point x="-74" y="785" type="line"/>
			<point x="54" y="785" type="line"/>
			<point x="229" y="929" type="line"/>
			<point x="67" y="929" type="line"/>
		</contour>
	</outline>
	<anchor name="_top.UC" x="0" y="750"/>
</glyph>
<glyph name="acutecomb.narrow" format="2">
	<outline>
		<contour>
			<point x="-73" y="587" type="line"/>
			<point x="31" y="587" type="line"/>
			<point x="163" y="761" type="line"/>
			<point x="25" y="761" type="line"/>
		</contour>
	</outline>
	<anchor name="_top.LC" x="0" y="544"/>
</glyph>
<glyph name="brevecomb.cap" format="2">
	<outline>
		<contour>
			<point x="-118" y="947" type="line"/>
			<point x="-119" y="940"/>
			<point x="-119" y="933"/>
			<point x="-119" y="927" type="curve" smooth="yes"/>
			<point x="-119" y="845"/>
			<point x="-61" y="795"/>
			<point x="26" y="795" type="curve" smooth="yes"/>
			<point x="139" y="795"/>
			<point x="208" y="854"/>
			<point x="233" y="947" type="curve"/>
			<point x="130" y="947" type="line"/>
			<point x="116" y="906"/>
			<point x="87" y="881"/>
			<point x="44" y="881" type="curve" smooth="yes"/>
			<point x="9" y="881"/>
			<point x="-14" y="904"/>
			<point x="-14" y="942" type="curve" smooth="yes"/>
			<point x="-14" y="947" type="line"/>
		</contour>
	</outline>
	<anchor name="_top.UC" x="0" y="750"/>
</glyph>
<glyph name="caroncomb.cap" format="2">
	<outline>
		<contour>
			<point x="-54" y="799" type="line"/>
			<point x="86" y="799" type="line"/>
			<point x="244" y="943" type="line"/>
			<point x="122" y="943" type="line"/>
			<point x="-35" y="815" type="line"/>
			<point x="76" y="815" type="line"/>
			<point x="-29" y="943" type="line"/>
			<point x="-151" y="943" type="line"/>
		</contour>
	</outline>
	<anchor name="_top.UC" x="0" y="750"/>
</glyph>
<glyph name="cedillacomb.cap" format="2">
	<outline>
		<contour>
			<point x="-158" y="-222" type="line"/>
			<point x="-131" y="-249"/>
			<point x="-97" y="-261"/>
			<point x="-47" y="-261" type="curve" smooth="yes"/>
			<point x="43" y="-261"/>
			<point x="111" y="-206"/>
			<point x="111" y="-132" type="curve" smooth="yes"/>
			<point x="111" y="-77"/>
			<point x="65" y="-42"/>
			<point x="-6" y="-42" type="curve"/>
			<point x="9" y="-88" type="line"/>
			<point x="53" y="10" type="line"/>
			<point x="-19" y="10" type="line"/>
			<point x="-77" y="-116" type="line"/>
			<point x="-59" y="-113"/>
			<point x="-41" y="-111"/>
			<point x="-31" y="-111" type="curve" smooth="yes"/>
			<point x="0" y="-111"/>
			<point x="18" y="-122"/>
			<point x="18" y="-142" type="curve" smooth="yes"/>
			<point x="18" y="-168"/>
			<point x="-5" y="-184"/>
			<point x="-40" y="-184" type="curve" smooth="yes"/>
			<point x="-66" y="-184"/>
			<point x="-89" y="-175"/>
			<point x="-105" y="-159" type="curve"/>
		</contour>
	</outline>
	<anchor name="_bottom.UC" x="0" y="-50"/>
</glyph>
<glyph name="circumflexcomb.cap" format="2">
	<outline>
		<contour>
			<point x="-186" y="799" type="line"/>
			<point x="-62" y="799" type="line"/>
			<point x="95" y="927" type="line"/>
			<point x="-17" y="927" type="line"/>
			<point x="87" y="799" type="line"/>
			<point x="209" y="799" type="line"/>
			<point x="112" y="943" type="line"/>
			<point x="-28" y="943" type="line"/>
		</contour>
	</outline>
	<anchor name="_top.UC" x="0" y="750"/>
</glyph>
<glyph name="commaaboverightcomb.short" format="2">
	<outline>
		<contour>
			<point x="22" y="553" type="line"/>
			<point x="79" y="601"/>
			<point x="118" y="654"/>
			<point x="118" y="699" type="curve" smooth="yes"/>
			<point x="118" y="733"/>
			<point x="98" y="753"/>
			<point x="62" y="753" type="curve" smooth="yes"/>
			<point x="22" y="753"/>
			<point x="-10" y="721"/>
			<point x="-10" y="681" type="curve" smooth="yes"/>
			<point x="-10" y="651"/>
			<point x="12" y="630"/>
			<point x="43" y="630" type="curve"/>
			<point x="29" y="656" type="line"/>
			<point x="21" y="627"/>
			<point x="-9" y="585"/>
			<point x="-43" y="553" type="curve"/>
		</contour>
	</outline>
	<anchor name="_top_right.LC.short" x="0" y="540"/>
</glyph>
<glyph name="commabelowcomb.cap" format="2">
	<outline>
		<contour>
			<point x="-57" y="-292" type="line"/>
			<point x="-7" y="-244"/>
			<point x="42" y="-186"/>
			<point x="42" y="-136" type="curve" smooth="yes"/>
			<point x="42" y="-99"/>
			<point x="19" y="-78"/>
			<point x="-15" y="-78" type="curve" smooth="yes"/>
			<point x="-62" y="-78"/>
			<point x="-88" y="-112"/>
			<point x="-88" y="-149" type="curve" smooth="yes"/>
			<point x="-88" y="-180"/>
			<point x="-67" y="-200"/>
			<point x="-36" y="-200" type="curve"/>
			<point x="-50" y="-179" type="line"/>
			<point x="-54" y="-208"/>
			<point x="-85" y="-254"/>
			<point x="-124" y="-292" type="curve"/>
		</contour>
	</outline>
	<anchor name="_bottom.UC" x="0" y="-50"/>
</glyph>
<glyph name="dieresiscomb.cap" format="2">
	<outline>
		<contour>
			<point x="-99" y="790" type="curve" smooth="yes"/>
			<point x="-44" y="790"/>
			<point x="-5" y="830"/>
			<point x="-5" y="882" type="curve" smooth="yes"/>
			<point x="-5" y="916"/>
			<point x="-30" y="941"/>
			<point x="-66" y="941" type="curve" smooth="yes"/>
			<point x="-122" y="941"/>
			<point x="-162" y="901"/>
			<point x="-162" y="850" type="curve" smooth="yes"/>
			<point x="-162" y="815"/>
			<point x="-137" y="790"/>
		</contour>
		<contour>
			<point x="122" y="790" type="curve" smooth="yes"/>
			<point x="177" y="790"/>
			<point x="216" y="830"/>
			<point x="216" y="882" type="curve" smooth="yes"/>
			<point x="216" y="916"/>
			<point x="191" y="941"/>
			<point x="154" y="941" type="curve" smooth="yes"/>
			<point x="99" y="941"/>
			<point x="59" y="901"/>
			<point x="59" y="850" type="curve" smooth="yes"/>
			<point x="59" y="815"/>
			<point x="84" y="790"/>
		</contour>
	</outline>
	<anchor name="_top.UC" x="0" y="750"/>
</glyph>
<glyph name="dieresiscomb.narrow" format="2">
	<outline>
		<contour>
			<point x="-74" y="598" type="curve" smooth="yes"/>
			<point x="-20" y="598"/>
			<point x="13" y="639"/>
			<point x="13" y="683" type="curve" smooth="yes"/>
			<point x="13" y="714"/>
			<point x="-10" y="737"/>
			<point x="-44" y="737" type="curve" smooth="yes"/>
			<point x="-98" y="737"/>
			<point x="-131" y="697"/>
			<point x="-131" y="653" type="curve" smooth="yes"/>
			<point x="-131" y="621"/>
			<point x="-109" y="598"/>
		</contour>
		<contour>
			<point x="94" y="598" type="curve" smooth="yes"/>
			<point x="147" y="598"/>
			<point x="181" y="639"/>
			<point x="181" y="683" type="curve" smooth="yes"/>
			<point x="181" y="714"/>
			<point x="158" y="737"/>
			<point x="124" y="737" type="curve" smooth="yes"/>
			<point x="70" y="737"/>
			<point x="36" y="697"/>
			<point x="36" y="653" type="curve" smooth="yes"/>
			<point x="36" y="621"/>
			<point x="59" y="598"/>
		</contour>
	</outline>
	<anchor name="_top.LC" x="0" y="544"/>
</glyph>
<glyph name="dotaccentcomb.cap" format="2">
	<outline>
		<contour>
			<point x="8" y="789" type="curve" smooth="yes"/>
			<point x="64" y="789"/>
			<point x="103" y="831"/>
			<point x="103" y="882" type="curve" smooth="yes"/>
			<point x="103" y="918"/>
			<point x="78" y="942"/>
			<point x="40" y="942" type="curve" smooth="yes"/>
			<point x="-15" y="942"/>
			<point x="-55" y="901"/>
			<point x="-55" y="850" type="curve" smooth="yes"/>
			<point x="-55" y="813"/>
			<point x="-30" y="789"/>
		</contour>
	</outline>
	<anchor name="_top.UC" x="0" y="750"/>
</glyph>
<glyph name="dotbelowcomb.cap" format="2">
	<outline>
		<contour>
			<point x="-108" y="-182" type="curve" smooth="yes"/>
			<point x="-108" y="-218"/>
			<point x="-83" y="-242"/>
			<point x="-45" y="-242" type="curve" smooth="yes"/>
			<point x="10" y="-242"/>
			<point x="51" y="-201"/>
			<point x="51" y="-149" type="curve" smooth="yes"/>
			<point x="51" y="-113"/>
			<point x="26" y="-89"/>
			<point x="-12" y="-89" type="curve" smooth="yes"/>
			<point x="-67" y="-89"/>
			<point x="-108" y="-130"/>
		</contour>
	</outline>
	<anchor name="_bottom.UC" x="0" y="-50"/>
</glyph>
<glyph name="eight.dnom" format="2">
	<advance width="385"/>
	<outline>
		<contour>
			<point x="0" y="89" type="curve" smooth="yes"/>
			<point x="0" y="30"/>
			<point x="55" y="-9"/>
			<point x="139" y="-9" type="curve" smooth="yes"/>
			<point x="243" y="-9"/>
			<point x="327" y="56"/>
			<point x="327" y="135" type="curve"/>
			<point x="327" y="193"/>
			<point x="272" y="232"/>
			<point x="189" y="232" type="curve" smooth="yes"/>
			<point x="83" y="232"/>
			<point x="0" y="170"/>
		</contour>
		<contour>
			<point x="58" y="288" type="curve" smooth="yes"/>
			<point x="58" y="236"/>
			<point x="108" y="201"/>
			<point x="182" y="201" type="curve" smooth="yes"/>
			<point x="275" y="201"/>
			<point x="351" y="258"/>
			<point x="351" y="326" type="curve" smooth="yes"/>
			<point x="351" y="381"/>
			<point x="301" y="417"/>
			<point x="225" y="417" type="curve" smooth="yes"/>
			<point x="134" y="417"/>
			<point x="58" y="358"/>
		</contour>
		<contour>
			<point x="103" y="111" type="curve" smooth="yes"/>
			<point x="103" y="147"/>
			<point x="136" y="176"/>
			<point x="177" y="176" type="curve" smooth="yes"/>
			<point x="208" y="176"/>
			<point x="228" y="160"/>
			<point x="228" y="135" type="curve" smooth="yes"/>
			<point x="228" y="98"/>
			<point x="195" y="70"/>
			<point x="154" y="70" type="curve" smooth="yes"/>
			<point x="123" y="70"/>
			<point x="103" y="86"/>
		</contour>
		<contour>
			<point x="153" y="282" type="curve" smooth="yes"/>
			<point x="153" y="314"/>
			<point x="179" y="339"/>
			<point x="211" y="339" type="curve" smooth="yes"/>
			<point x="236" y="339"/>
			<point x="250" y="326"/>
			<point x="250" y="304" type="curve" smooth="yes"/>
			<point x="250" y="273"/>
			<point x="222" y="246"/>
			<point x="191" y="246" type="curve" smooth="yes"/>
			<point x="168" y="246"/>
			<point x="153" y="259"/>
		</contour>
	</outline>
</glyph>
<glyph name="exclamdown.case" format="2">
	<advance width="262"/>
	<outline>
		<contour>
			<point x="151" y="478" type="line"/>
			<point x="137" y="433"/>
			<point x="80" y="241"/>
			<point x="41" y="119" type="curve" smooth="yes"/>
			<point x="23" y="62"/>
			<point x="19" y="46"/>
			<point x="19" y="33" type="curve" smooth="yes"/>
			<point x="19" y="-6"/>
			<point x="43" y="-29"/>
			<point x="85" y="-29" type="curve" smooth="yes"/>
			<point x="109" y="-29"/>
			<point x="131" y="-21"/>
			<point x="145" y="-6" type="curve" smooth="yes"/>
			<point x="162" y="12"/>
			<point x="170" y="36"/>
			<point x="175" y="87" type="curve" smooth="yes"/>
			<point x="184" y="170"/>
			<point x="218" y="434"/>
			<point x="222" y="478" type="curve"/>
		</contour>
		<contour>
			<point x="134" y="619" type="curve" smooth="yes"/>
			<point x="134" y="578"/>
			<point x="164" y="548"/>
			<point x="203" y="548" type="curve" smooth="yes"/>
			<point x="262" y="548"/>
			<point x="302" y="591"/>
			<point x="302" y="647" type="curve" smooth="yes"/>
			<point x="302" y="686"/>
			<point x="272" y="715"/>
			<point x="231" y="715" type="curve" smooth="yes"/>
			<point x="174" y="715"/>
			<point x="134" y="676"/>
		</contour>
	</outline>
</glyph>
<glyph name="five.dnom" format="2">
	<advance width="367"/>
	<outline>
		<contour>
			<point x="23" y="174" type="line"/>
			<point x="108" y="174" type="line"/>
			<point x="128" y="191"/>
			<point x="148" y="200"/>
			<point x="171" y="200" type="curve" smooth="yes"/>
			<point x="200" y="200"/>
			<point x="218" y="180"/>
			<point x="218" y="150" type="curve" smooth="yes"/>
			<point x="218" y="106"/>
			<point x="184" y="70"/>
			<point x="134" y="70" type="curve" smooth="yes"/>
			<point x="101" y="70"/>
			<point x="75" y="85"/>
			<point x="48" y="123" type="curve"/>
			<point x="-15" y="62" type="line"/>
			<point x="15" y="15"/>
			<point x="64" y="-9"/>
			<point x="131" y="-9" type="curve" smooth="yes"/>
			<point x="239" y="-9"/>
			<point x="318" y="70"/>
			<point x="318" y="170" type="curve" smooth="yes"/>
			<point x="318" y="235"/>
			<point x="274" y="277"/>
			<point x="206" y="277" type="curve" smooth="yes"/>
			<point x="173" y="277"/>
			<point x="142" y="263"/>
			<point x="119" y="241" type="curve"/>
			<point x="128" y="234" type="line"/>
			<point x="165" y="349" type="line"/>
			<point x="139" y="330" type="line"/>
			<point x="332" y="330" type="line"/>
			<point x="349" y="408" type="line"/>
			<point x="100" y="408" type="line"/>
		</contour>
	</outline>
</glyph>
<glyph name="four.dnom" format="2">
	<advance width="403"/>
	<outline>
		<contour>
			<point x="171" y="0" type="line"/>
			<point x="268" y="0" type="line"/>
			<point x="355" y="408" type="line"/>
			<point x="258" y="408" type="line"/>
			<point x="9" y="154" type="line"/>
			<point x="-7" y="78" type="line"/>
			<point x="336" y="78" type="line"/>
			<point x="352" y="154" type="line"/>
			<point x="79" y="154" type="line"/>
			<point x="86" y="139" type="line"/>
			<point x="248" y="314" type="line"/>
			<point x="239" y="319" type="line"/>
		</contour>
	</outline>
</glyph>
<glyph name="gravecomb.narrow" format="2">
	<outline>
		<contour>
			<point x="-44" y="587" type="line"/>
			<point x="58" y="587" type="line"/>
			<point x="12" y="761" type="line"/>
			<point x="-124" y="761" type="line"/>
		</contour>
	</outline>
	<anchor name="_top.LC" x="0" y="544"/>
</glyph>
<glyph name="hungarumlautcomb.cap" format="2">
	<outline>
		<contour>
			<point x="-175" y="789" type="line"/>
			<point x="-49" y="789" type="line"/>
			<point x="135" y="953" type="line"/>
			<point x="-19" y="953" type="line"/>
		</contour>
		<contour>
			<point x="13" y="789" type="line"/>
			<point x="139" y="789" type="line"/>
			<point x="343" y="953" type="line"/>
			<point x="190" y="953" type="line"/>
		</contour>
	</outline>
	<anchor name="_top.UC" x="0" y="750"/>
</glyph>
<glyph name="nine.dnom" format="2">
	<advance width="381"/>
	<outline>
		<contour>
			<point x="137" y="0" type="line"/>
			<point x="299" y="121"/>
			<point x="356" y="203"/>
			<point x="356" y="297" type="curve" smooth="yes"/>
			<point x="356" y="371"/>
			<point x="304" y="417"/>
			<point x="225" y="417" type="curve" smooth="yes"/>
			<point x="107" y="417"/>
			<point x="31" y="342"/>
			<point x="31" y="240" type="curve" smooth="yes"/>
			<point x="31" y="177"/>
			<point x="75" y="135"/>
			<point x="142" y="135" type="curve" smooth="yes"/>
			<point x="178" y="135"/>
			<point x="206" y="151"/>
			<point x="232" y="185" type="curve"/>
			<point x="224" y="188" type="line"/>
			<point x="193" y="137"/>
			<point x="133" y="84"/>
			<point x="13" y="0" type="curve"/>
		</contour>
		<contour>
			<point x="128" y="259" type="curve" smooth="yes"/>
			<point x="128" y="304"/>
			<point x="164" y="338"/>
			<point x="209" y="338" type="curve" smooth="yes"/>
			<point x="240" y="338"/>
			<point x="261" y="317"/>
			<point x="261" y="288" type="curve" smooth="yes"/>
			<point x="261" y="246"/>
			<point x="224" y="210"/>
			<point x="182" y="210" type="curve" smooth="yes"/>
			<point x="150" y="210"/>
			<point x="128" y="229"/>
		</contour>
	</outline>
</glyph>
<glyph name="ogonekcomb.round.cap" format="2">
	<outline>
		<contour>
			<point x="86" y="-159" type="line"/>
			<point x="77" y="-161"/>
			<point x="66" y="-162"/>
			<point x="57" y="-162" type="curve" smooth="yes"/>
			<point x="28" y="-162"/>
			<point x="10" y="-146"/>
			<point x="10" y="-119" type="curve" smooth="yes"/>
			<point x="10" y="-67"/>
			<point x="55" y="-16"/>
			<point x="136" y="24" type="curve"/>
			<point x="47" y="24" type="line"/>
			<point x="-53" y="-32"/>
			<point x="-101" y="-90"/>
			<point x="-101" y="-160" type="curve" smooth="yes"/>
			<point x="-101" y="-218"/>
			<point x="-55" y="-252"/>
			<point x="23" y="-252" type="curve" smooth="yes"/>
			<point x="39" y="-252"/>
			<point x="54" y="-251"/>
			<point x="67" y="-248" type="curve"/>
		</contour>
	</outline>
	<anchor name="_ogonek.UC.round" x="0" y="-30"/>
</glyph>
<glyph name="ogonekcomb.round" format="2">
	<outline>
		<contour>
			<point x="86" y="-160" type="line"/>
			<point x="76" y="-162"/>
			<point x="65" y="-163"/>
			<point x="57" y="-163" type="curve" smooth="yes"/>
			<point x="25" y="-163"/>
			<point x="8" y="-148"/>
			<point x="8" y="-121" type="curve" smooth="yes"/>
			<point x="8" y="-73"/>
			<point x="55" y="-14"/>
			<point x="136" y="41" type="curve"/>
			<point x="89" y="54" type="line"/>
			<point x="-42" y="-14"/>
			<point x="-100" y="-79"/>
			<point x="-100" y="-158" type="curve" smooth="yes"/>
			<point x="-100" y="-217"/>
			<point x="-55" y="-252"/>
			<point x="22" y="-252" type="curve" smooth="yes"/>
			<point x="39" y="-252"/>
			<point x="52" y="-251"/>
			<point x="67" y="-248" type="curve"/>
		</contour>
	</outline>
	<anchor name="_ogonek.LC.round" x="0" y="-30"/>
</glyph>
<glyph name="one.dnom" format="2">
	<advance width="352"/>
	<outline>
		<contour>
			<point x="108" y="0" type="line"/>
			<point x="210" y="0" type="line"/>
			<point x="297" y="411" type="line"/>
			<point x="216" y="411" type="line"/>
			<point x="83" y="337" type="line"/>
			<point x="63" y="243" type="line"/>
			<point x="174" y="310" type="line"/>
		</contour>
	</outline>
</glyph>
<glyph name="questiondown.case" format="2">
	<advance width="579"/>
	<outline>
		<contour>
			<point x="436" y="188" type="line"/>
			<point x="381" y="118"/>
			<point x="321" y="85"/>
			<point x="265" y="85" type="curve" smooth="yes"/>
			<point x="206" y="85"/>
			<point x="179" y="122"/>
			<point x="179" y="162" type="curve" smooth="yes"/>
			<point x="179" y="210"/>
			<point x="211" y="244"/>
			<point x="262" y="271" type="curve" smooth="yes"/>
			<point x="364" y="326"/>
			<point x="395" y="372"/>
			<point x="406" y="478" type="curve"/>
			<point x="309" y="478" type="line"/>
			<point x="298" y="421"/>
			<point x="276" y="393"/>
			<point x="210" y="357" type="curve" smooth="yes"/>
			<point x="98" y="298"/>
			<point x="45" y="233"/>
			<point x="45" y="142" type="curve" smooth="yes"/>
			<point x="45" y="55"/>
			<point x="119" y="-29"/>
			<point x="249" y="-29" type="curve" smooth="yes"/>
			<point x="347" y="-29"/>
			<point x="435" y="13"/>
			<point x="512" y="102" type="curve"/>
		</contour>
		<contour>
			<point x="369" y="548" type="curve" smooth="yes"/>
			<point x="426" y="548"/>
			<point x="468" y="589"/>
			<point x="468" y="646" type="curve" smooth="yes"/>
			<point x="468" y="686"/>
			<point x="437" y="715"/>
			<point x="397" y="715" type="curve" smooth="yes"/>
			<point x="340" y="715"/>
			<point x="299" y="675"/>
			<point x="299" y="619" type="curve" smooth="yes"/>
			<point x="299" y="579"/>
			<point x="329" y="548"/>
		</contour>
	</outline>
</glyph>
<glyph name="seven.dnom" format="2">
	<advance width="361"/>
	<outline>
		<contour>
			<point x="51" y="329" type="line"/>
			<point x="268" y="329" type="line"/>
			<point x="258" y="349" type="line"/>
			<point x="-14" y="0" type="line"/>
			<point x="90" y="0" type="line"/>
			<point x="344" y="329" type="line"/>
			<point x="361" y="408" type="line"/>
			<point x="68" y="408" type="line"/>
		</contour>
	</outline>
</glyph>
<glyph name="three.dnom" format="2">
	<advance width="370"/>
	<outline>
		<contour>
			<point x="-18" y="74" type="line"/>
			<point x="16" y="17"/>
			<point x="76" y="-9"/>
			<point x="136" y="-9" type="curve" smooth="yes"/>
			<point x="231" y="-9"/>
			<point x="309" y="49"/>
			<point x="309" y="130" type="curve" smooth="yes"/>
			<point x="309" y="184"/>
			<point x="269" y="218"/>
			<point x="201" y="226" type="curve"/>
			<point x="153" y="226" type="line"/>
			<point x="151" y="205" type="line"/>
			<point x="198" y="205" type="line" smooth="yes"/>
			<point x="275" y="207"/>
			<point x="332" y="248"/>
			<point x="332" y="315" type="curve" smooth="yes"/>
			<point x="332" y="381"/>
			<point x="268" y="417"/>
			<point x="200" y="417" type="curve" smooth="yes"/>
			<point x="145" y="417"/>
			<point x="88" y="396"/>
			<point x="48" y="357" type="curve"/>
			<point x="89" y="294" type="line"/>
			<point x="118" y="325"/>
			<point x="148" y="338"/>
			<point x="179" y="338" type="curve" smooth="yes"/>
			<point x="214" y="338"/>
			<point x="236" y="324"/>
			<point x="236" y="299" type="curve" smooth="yes"/>
			<point x="236" y="267"/>
			<point x="203" y="249"/>
			<point x="169" y="249" type="curve" smooth="yes"/>
			<point x="128" y="249" type="line"/>
			<point x="112" y="173" type="line"/>
			<point x="152" y="173" type="line"/>
			<point x="191" y="173"/>
			<point x="210" y="155"/>
			<point x="210" y="130" type="curve" smooth="yes"/>
			<point x="210" y="93"/>
			<point x="176" y="70"/>
			<point x="134" y="70" type="curve" smooth="yes"/>
			<point x="95" y="70"/>
			<point x="63" y="91"/>
			<point x="45" y="127" type="curve"/>
		</contour>
	</outline>
</glyph>
<glyph name="tildecomb.cap" format="2">
	<outline>
		<contour>
			<point x="-54" y="931" type="curve" smooth="yes"/>
			<point x="-114" y="931"/>
			<point x="-167" y="893"/>
			<point x="-193" y="822" type="curve"/>
			<point x="-116" y="784" type="line"/>
			<point x="-100" y="824"/>
			<point x="-83" y="843"/>
			<point x="-67" y="843" type="curve" smooth="yes"/>
			<point x="-53" y="843"/>
			<point x="-45" y="835"/>
			<point x="-31" y="822" type="curve" smooth="yes"/>
			<point x="-2" y="794"/>
			<point x="29" y="779"/>
			<point x="64" y="779" type="curve" smooth="yes"/>
			<point x="123" y="779"/>
			<point x="176" y="817"/>
			<point x="202" y="888" type="curve"/>
			<point x="125" y="926" type="line"/>
			<point x="109" y="886"/>
			<point x="92" y="867"/>
			<point x="76" y="867" type="curve" smooth="yes"/>
			<point x="63" y="867"/>
			<point x="54" y="876"/>
			<point x="40" y="889" type="curve" smooth="yes"/>
			<point x="11" y="916"/>
			<point x="-20" y="931"/>
		</contour>
	</outline>
	<anchor name="_top.UC" x="0" y="750"/>
</glyph>
<glyph name="tildecomb.narrow" format="2">
	<outline>
		<contour>
			<point x="33" y="698" type="curve" smooth="yes"/>
			<point x="3" y="727"/>
			<point x="-17" y="737"/>
			<point x="-42" y="737" type="curve" smooth="yes"/>
			<point x="-90" y="737"/>
			<point x="-134" y="696"/>
			<point x="-160" y="626" type="curve"/>
			<point x="-96" y="587" type="line"/>
			<point x="-81" y="628"/>
			<point x="-68" y="647"/>
			<point x="-52" y="647" type="curve" smooth="yes"/>
			<point x="-44" y="647"/>
			<point x="-40" y="645"/>
			<point x="-21" y="625" type="curve" smooth="yes"/>
			<point x="7" y="597"/>
			<point x="27" y="586"/>
			<point x="53" y="586" type="curve" smooth="yes"/>
			<point x="101" y="586"/>
			<point x="145" y="628"/>
			<point x="171" y="697" type="curve"/>
			<point x="107" y="737" type="line"/>
			<point x="92" y="695"/>
			<point x="79" y="677"/>
			<point x="63" y="677" type="curve" smooth="yes"/>
			<point x="55" y="677"/>
			<point x="51" y="679"/>
		</contour>
	</outline>
	<anchor name="_top.LC" x="0" y="544"/>
</glyph>
<glyph name="zero.dnom" format="2">
	<advance width="394"/>
	<outline>
		<contour>
			<point x="153" y="-9" type="curve" smooth="yes"/>
			<point x="297" y="-9"/>
			<point x="358" y="154"/>
			<point x="358" y="262" type="curve" smooth="yes"/>
			<point x="358" y="358"/>
			<point x="308" y="417"/>
			<point x="220" y="417" type="curve" smooth="yes"/>
			<point x="76" y="417"/>
			<point x="16" y="254"/>
			<point x="16" y="146" type="curve" smooth="yes"/>
			<point x="16" y="50"/>
			<point x="65" y="-9"/>
		</contour>
		<contour>
			<point x="162" y="70" type="curve" smooth="yes"/>
			<point x="122" y="70"/>
			<point x="116" y="113"/>
			<point x="116" y="141" type="curve" smooth="yes"/>
			<point x="116" y="198"/>
			<point x="142" y="338"/>
			<point x="213" y="338" type="curve" smooth="yes"/>
			<point x="251" y="338"/>
			<point x="257" y="295"/>
			<point x="257" y="267" type="curve" smooth="yes"/>
			<point x="257" y="210"/>
			<point x="232" y="70"/>
		</contour>
	</outline>
</glyph>
<glyph name="zero.percent" format="2">
	<advance width="365"/>
	<outline>
		<contour>
			<point x="96" y="146" type="curve" smooth="yes"/>
			<point x="96" y="189"/>
			<point x="128" y="230"/>
			<point x="172" y="230" type="curve" smooth="yes"/>
			<point x="207" y="230"/>
			<point x="229" y="203"/>
			<point x="229" y="167" type="curve" smooth="yes"/>
			<point x="229" y="125"/>
			<point x="197" y="84"/>
			<point x="153" y="84" type="curve" smooth="yes"/>
			<point x="117" y="84"/>
			<point x="96" y="111"/>
		</contour>
		<contour>
			<point x="-3" y="133" type="curve" smooth="yes"/>
			<point x="-3" y="46"/>
			<point x="64" y="-11"/>
			<point x="143" y="-11" type="curve" smooth="yes"/>
			<point x="249" y="-11"/>
			<point x="328" y="84"/>
			<point x="328" y="180" type="curve" smooth="yes"/>
			<point x="328" y="268"/>
			<point x="261" y="325"/>
			<point x="182" y="325" type="curve" smooth="yes"/>
			<point x="75" y="325"/>
			<point x="-3" y="230"/>
		</contour>
	</outline>
</glyph>
